<svg width="52" height="52" viewBox="0 0 52 52" fill="none" xmlns="http://www.w3.org/2000/svg">
<rect x="0.7" y="0.7" width="50.6" height="50.6" rx="3.3" fill="#FFFFFE"/>
<rect x="0.7" y="0.7" width="50.6" height="50.6" rx="3.3" stroke="#E7E8E9" stroke-width="1.4"/>
<path fill-rule="evenodd" clip-rule="evenodd" d="M13.3815 7.25969C13.7404 5.92648 14.9493 5 16.33 5H16.7041C18.0447 5 19.2284 5.87429 19.6226 7.15553L22.3446 16.0017C22.5925 16.8077 22.1402 17.662 21.3343 17.91C20.5284 18.158 19.674 17.7057 19.4261 16.8998L18.4428 13.7043C17.589 13.7659 16.759 13.6121 16.0783 13.4142C15.701 13.3045 15.3354 13.1714 14.9911 13.0266L13.9624 16.8477C13.7431 17.6619 12.9054 18.1442 12.0912 17.925C11.2769 17.7058 10.7946 16.868 11.0138 16.0538L13.3815 7.25969ZM15.7951 10.0405C16.141 10.2071 16.5309 10.3658 16.931 10.4821C17.1317 10.5405 17.3187 10.5836 17.4917 10.6133L16.7041 8.05353H16.33L15.7951 10.0405ZM24.7022 5C25.5454 5 26.229 5.68356 26.229 6.52677V14.1606H30.0459C30.8891 14.1606 31.5727 14.8442 31.5727 15.6874C31.5727 16.5306 30.8891 17.2141 30.0459 17.2141H26.229C24.5426 17.2141 23.1755 15.847 23.1755 14.1606V6.52677C23.1755 5.68356 23.859 5 24.7022 5ZM35.3895 6.52677C35.3895 5.68356 34.7059 5 33.8627 5C33.0195 5 32.3359 5.68356 32.3359 6.52677V14.1606C32.3359 15.847 33.703 17.2141 35.3895 17.2141H39.2064C40.0496 17.2141 40.7332 16.5306 40.7332 15.6874C40.7332 14.8442 40.0496 14.1606 39.2064 14.1606H35.3895V6.52677Z" fill="#1A82FF"/>
<path d="M13.3815 7.25969L13.7981 7.37187V7.37187L13.3815 7.25969ZM19.6226 7.15553L20.035 7.02864V7.02864L19.6226 7.15553ZM22.3446 16.0017L21.9322 16.1286L22.3446 16.0017ZM21.3343 17.91L21.2074 17.4976L21.3343 17.91ZM19.4261 16.8998L19.0137 17.0266V17.0266L19.4261 16.8998ZM18.4428 13.7043L18.8552 13.5775L18.7543 13.2493L18.4118 13.274L18.4428 13.7043ZM16.0783 13.4142L16.1988 12.9999L16.1988 12.9999L16.0783 13.4142ZM14.9911 13.0266L15.1584 12.6288L14.7029 12.4373L14.5745 12.9144L14.9911 13.0266ZM13.9624 16.8477L13.5457 16.7355V16.7355L13.9624 16.8477ZM12.0912 17.925L11.979 18.3417L12.0912 17.925ZM11.0138 16.0538L11.4305 16.166L11.0138 16.0538ZM16.931 10.4821L16.8105 10.8964L16.931 10.4821ZM15.7951 10.0405L15.3784 9.9283L15.2854 10.2739L15.6078 10.4292L15.7951 10.0405ZM17.4917 10.6133L17.4189 11.0385L18.1105 11.1569L17.9041 10.4864L17.4917 10.6133ZM16.7041 8.05353L17.1165 7.92664L17.0228 7.62205H16.7041V8.05353ZM16.33 8.05353V7.62205H15.9993L15.9134 7.94136L16.33 8.05353ZM26.229 14.1606H25.7975V14.5921H26.229V14.1606ZM35.3895 14.1606H34.958V14.5921H35.3895V14.1606ZM16.33 4.56852C14.7542 4.56852 13.3745 5.62592 12.9648 7.14752L13.7981 7.37187C14.1063 6.22704 15.1444 5.43148 16.33 5.43148V4.56852ZM16.7041 4.56852H16.33V5.43148H16.7041V4.56852ZM20.035 7.02864C19.5851 5.56636 18.2341 4.56852 16.7041 4.56852V5.43148C17.8552 5.43148 18.8717 6.18223 19.2102 7.28242L20.035 7.02864ZM22.757 15.8749L20.035 7.02864L19.2102 7.28242L21.9322 16.1286L22.757 15.8749ZM21.4612 18.3224C22.4949 18.0043 23.075 16.9085 22.757 15.8749L21.9322 16.1286C22.1101 16.7068 21.7856 17.3197 21.2074 17.4976L21.4612 18.3224ZM19.0137 17.0266C19.3317 18.0603 20.4275 18.6405 21.4612 18.3224L21.2074 17.4976C20.6293 17.6755 20.0163 17.351 19.8384 16.7729L19.0137 17.0266ZM18.0305 13.8312L19.0137 17.0266L19.8384 16.7729L18.8552 13.5775L18.0305 13.8312ZM15.9579 13.8285C16.6677 14.0349 17.5517 14.2012 18.4739 14.1347L18.4118 13.274C17.6263 13.3306 16.8503 13.1893 16.1988 12.9999L15.9579 13.8285ZM14.8238 13.4243C15.1814 13.5747 15.5627 13.7136 15.9579 13.8285L16.1988 12.9999C15.8393 12.8953 15.4894 12.7681 15.1584 12.6288L14.8238 13.4243ZM14.379 16.9598L15.4078 13.1387L14.5745 12.9144L13.5457 16.7355L14.379 16.9598ZM11.979 18.3417C13.0233 18.6228 14.0978 18.0042 14.379 16.9598L13.5457 16.7355C13.3885 17.3196 12.7875 17.6656 12.2033 17.5084L11.979 18.3417ZM10.5972 15.9417C10.316 16.986 10.9347 18.0605 11.979 18.3417L12.2033 17.5084C11.6192 17.3511 11.2732 16.7501 11.4305 16.166L10.5972 15.9417ZM12.9648 7.14752L10.5972 15.9417L11.4305 16.166L13.7981 7.37187L12.9648 7.14752ZM17.0515 10.0678C16.6789 9.95947 16.3116 9.81039 15.9823 9.65176L15.6078 10.4292C15.9704 10.6039 16.3828 10.7721 16.8105 10.8964L17.0515 10.0678ZM17.5646 10.188C17.4091 10.1614 17.2381 10.1221 17.0515 10.0678L16.8105 10.8964C17.0254 10.9589 17.2283 11.0059 17.4189 11.0385L17.5646 10.188ZM16.2917 8.18042L17.0793 10.7401L17.9041 10.4864L17.1165 7.92664L16.2917 8.18042ZM16.33 8.48501H16.7041V7.62205H16.33V8.48501ZM16.2117 10.1526L16.7466 8.1657L15.9134 7.94136L15.3784 9.9283L16.2117 10.1526ZM26.6605 6.52677C26.6605 5.44526 25.7837 4.56852 24.7022 4.56852V5.43148C25.3071 5.43148 25.7975 5.92185 25.7975 6.52677H26.6605ZM26.6605 14.1606V6.52677H25.7975V14.1606H26.6605ZM30.0459 13.7291H26.229V14.5921H30.0459V13.7291ZM32.0042 15.6874C32.0042 14.6059 31.1274 13.7291 30.0459 13.7291V14.5921C30.6508 14.5921 31.1412 15.0825 31.1412 15.6874H32.0042ZM30.0459 17.6456C31.1274 17.6456 32.0042 16.7689 32.0042 15.6874H31.1412C31.1412 16.2923 30.6508 16.7827 30.0459 16.7827V17.6456ZM26.229 17.6456H30.0459V16.7827H26.229V17.6456ZM22.744 14.1606C22.744 16.0853 24.3043 17.6456 26.229 17.6456V16.7827C24.7809 16.7827 23.6069 15.6087 23.6069 14.1606H22.744ZM22.744 6.52677V14.1606H23.6069V6.52677H22.744ZM24.7022 4.56852C23.6207 4.56852 22.744 5.44526 22.744 6.52677H23.6069C23.6069 5.92185 24.0973 5.43148 24.7022 5.43148V4.56852ZM33.8627 5.43148C34.4676 5.43148 34.958 5.92185 34.958 6.52677H35.8209C35.8209 5.44526 34.9442 4.56852 33.8627 4.56852V5.43148ZM32.7674 6.52677C32.7674 5.92185 33.2578 5.43148 33.8627 5.43148V4.56852C32.7812 4.56852 31.9045 5.44526 31.9045 6.52677H32.7674ZM32.7674 14.1606V6.52677H31.9045V14.1606H32.7674ZM35.3895 16.7827C33.9413 16.7827 32.7674 15.6087 32.7674 14.1606H31.9045C31.9045 16.0853 33.4647 17.6456 35.3895 17.6456V16.7827ZM39.2064 16.7827H35.3895V17.6456H39.2064V16.7827ZM40.3017 15.6874C40.3017 16.2923 39.8113 16.7827 39.2064 16.7827V17.6456C40.2879 17.6456 41.1646 16.7689 41.1646 15.6874H40.3017ZM39.2064 14.5921C39.8113 14.5921 40.3017 15.0825 40.3017 15.6874H41.1646C41.1646 14.6059 40.2879 13.7291 39.2064 13.7291V14.5921ZM35.3895 14.5921H39.2064V13.7291H35.3895V14.5921ZM34.958 6.52677V14.1606H35.8209V6.52677H34.958Z" fill="#0051B3"/>
<path d="M6.43148 21.7034C6.43148 20.9886 7.01101 20.409 7.72591 20.409H43.97C44.6849 20.409 45.2645 20.9886 45.2645 21.7034V43.2441C45.2645 44.9122 43.9122 46.2645 42.2441 46.2645H9.45182C7.78373 46.2645 6.43148 44.9122 6.43148 43.2441V21.7034Z" fill="#FFF6E6" stroke="#1B1C1D" stroke-width="0.862955"/>
<rect x="21.6991" y="29.0975" width="9.06103" height="3.71735" rx="1.29443" fill="#FFCB61" stroke="#4C4F52" stroke-width="0.862955"/>
</svg>
