<svg width="960" height="783" viewBox="0 0 960 783" fill="none" xmlns="http://www.w3.org/2000/svg">
<rect width="960" height="783" fill="url(#paint0_linear_1634_36376)"/>
<ellipse cx="479.72" cy="542.303" rx="251.72" ry="36.6972" fill="#00499F"/>
<path d="M345.865 534.602V487.934L360.586 481.625C360.84 481.517 361.113 481.461 361.389 481.461H425.891V531.065C425.891 531.661 425.63 532.226 425.178 532.613L420.47 536.639H347.901C346.777 536.639 345.865 535.727 345.865 534.602Z" fill="#DBA316" stroke="#CF9911" stroke-width="4.07337" stroke-linecap="round"/>
<path d="M355.037 484.489V443.701L367.858 438.202C368.111 438.093 368.385 438.037 368.661 438.037H425.506V481.6C425.506 482.195 425.246 482.761 424.794 483.147L420.847 486.525H357.073C355.949 486.525 355.037 485.614 355.037 484.489Z" fill="#E6B432" stroke="#D4A01A" stroke-width="4.07337" stroke-linecap="round"/>
<path d="M403.201 537.47V490.803L417.922 484.493C418.176 484.385 418.449 484.329 418.724 484.329H483.227V533.933C483.227 534.529 482.966 535.094 482.514 535.481L477.806 539.507H405.237C404.113 539.507 403.201 538.595 403.201 537.47Z" fill="#F2CC6B" stroke="#F0BF42" stroke-width="4.07337" stroke-linecap="round"/>
<path d="M398.423 484.907V438.239L413.145 431.93C413.398 431.821 413.671 431.765 413.947 431.765H478.449V481.37C478.449 481.965 478.189 482.531 477.736 482.918L473.029 486.944H400.46C399.335 486.944 398.423 486.032 398.423 484.907Z" fill="#F2CC6B" stroke="#F0BF42" stroke-width="4.07337" stroke-linecap="round"/>
<path d="M407.986 433.301V386.634L422.707 380.324C422.961 380.216 423.234 380.16 423.51 380.16H488.012V429.764C488.012 430.36 487.751 430.925 487.299 431.312L482.591 435.338H410.023C408.898 435.338 407.986 434.426 407.986 433.301Z" fill="#F2CC6B" stroke="#F0BF42" stroke-width="4.07337" stroke-linecap="round"/>
<rect x="529.613" y="276.247" width="55.0459" height="5.73394" fill="#D9D9D9"/>
<path d="M506.676 537.895L509.919 490.828M524.356 281.297H584.085M524.356 281.297L521.393 324.302M524.356 281.297L523.524 318.336M524.356 281.297L528.191 277.918C529.412 276.841 530.985 276.247 532.613 276.247H587.609M584.085 281.297L587.609 324.302M584.085 281.297L587.609 276.247M605.11 537.895L601.254 490.828M521.393 324.302H587.609M521.393 324.302L518.792 362.051M587.609 324.302L590.702 362.051M518.792 362.051H590.702M518.792 362.051L516.059 401.712M590.702 362.051L593.952 401.712M516.059 401.712H593.952M516.059 401.712L513.162 443.761M593.952 401.712L597.397 443.761M513.162 443.761H597.397M513.162 443.761L509.919 490.828M597.397 443.761L601.254 490.828M509.919 490.828H601.254M518.792 529.114L519.796 484.389M520.8 439.664L519.796 484.389M520.8 439.664L521.791 395.513M520.8 439.664H604.537M519.796 484.389H609.169M521.791 395.513L522.693 355.376L523.524 318.336M521.791 395.513H599.963M523.524 318.336H591.969M587.609 276.247L591.969 318.336M613.802 529.114L604.537 439.664M604.537 439.664L599.963 395.513M599.963 395.513L595.806 355.376M523.524 355.376H595.806M595.806 355.376L591.969 318.336" stroke="#D2D2D2" stroke-width="3.8227" stroke-linecap="round"/>
<path d="M510 338C504.744 339.115 491.165 342.675 489.254 347.263" stroke="#6DDB19" stroke-width="3.8227" stroke-linecap="round"/>
<path d="M548.252 310.046C551.252 325.343 552.51 355.675 533.538 354.621C525.429 354.784 509.497 346.433 514.623 311.543" stroke="#9AEC5B" stroke-width="12.9613" stroke-linecap="round"/>
<path d="M514.434 368.922L517.567 365.789M525.922 357.434L517.567 365.789M517.567 365.789C514.434 365.905 509.561 364.745 508.741 359.748" stroke="#9AEC5B" stroke-width="5.55486" stroke-linecap="round"/>
<path d="M548.766 364.311L545.285 361.569M536.002 354.259L545.285 361.569M545.285 361.569C548.409 361.315 553.111 359.588 553.336 354.529" stroke="#9AEC5B" stroke-width="5.55486" stroke-linecap="round"/>
<circle cx="489.256" cy="348.215" r="5.25621" fill="#6DDB19"/>
<path d="M406.696 478.32C413.834 492.178 423.481 520.962 404.965 525.228C397.221 527.641 379.595 524.052 374.811 489.115" stroke="#9AEC5B" stroke-width="12.9613" stroke-linecap="round"/>
<path d="M397.52 545.726L397.52 541.295M397.52 529.479L397.52 541.295M397.52 541.295C395.387 543.592 391.121 546.218 387.007 543.264" stroke="#9AEC5B" stroke-width="5.55486" stroke-linecap="round"/>
<path d="M412.672 544.47L411.525 540.19M408.467 528.777L411.525 540.19M411.525 540.19C414.18 541.857 418.98 543.289 422.189 539.371" stroke="#9AEC5B" stroke-width="5.55486" stroke-linecap="round"/>
<path d="M419.934 505.985C422.164 505.666 427.006 503.595 428.535 497.861" stroke="#9AEC5B" stroke-width="3.8227" stroke-linecap="round"/>
<path d="M362.002 502.336C362.887 504.407 372 517 381.824 511.588" stroke="#9AEC5B" stroke-width="3.8227" stroke-linecap="round"/>
<circle cx="429.971" cy="494.041" r="5.25621" fill="#9AEC5B"/>
<circle cx="360.256" cy="498.256" r="5.25621" fill="#9AEC5B"/>
<path d="M423.037 382.047V335.379L437.758 329.07C438.012 328.961 438.285 328.905 438.56 328.905H503.063V378.51C503.063 379.105 502.802 379.671 502.35 380.057L497.642 384.083H425.073C423.949 384.083 423.037 383.171 423.037 382.047Z" fill="#F2CC6B" stroke="#F0BF42" stroke-width="4.07337" stroke-linecap="round"/>
<path d="M546.6 332.925C550 342 524 356.5 510.762 351.56" stroke="#6DDB19" stroke-width="3.8227" stroke-linecap="round"/>
<circle cx="509.256" cy="352.256" r="5.25621" fill="#6DDB19"/>
<defs>
<linearGradient id="paint0_linear_1634_36376" x1="515.25" y1="5.27543e-08" x2="511.995" y2="632.834" gradientUnits="userSpaceOnUse">
<stop stop-color="#FFFFFE"/>
<stop offset="0.400297" stop-color="#3B8FF7"/>
<stop offset="0.756667" stop-color="#0051B2"/>
</linearGradient>
</defs>
</svg>
