<svg width="960" height="783" viewBox="0 0 960 783" fill="none" xmlns="http://www.w3.org/2000/svg">
<rect width="960" height="783" fill="url(#paint0_linear_1634_36221)"/>
<ellipse cx="479.72" cy="542.303" rx="251.72" ry="36.6972" fill="#00499F"/>
<path d="M345.865 534.602V487.934L360.586 481.625C360.84 481.517 361.113 481.461 361.389 481.461H425.891V531.065C425.891 531.661 425.63 532.226 425.178 532.613L420.47 536.639H347.901C346.777 536.639 345.865 535.727 345.865 534.602Z" fill="#DBA316" stroke="#CF9911" stroke-width="4.07337" stroke-linecap="round"/>
<rect x="529.613" y="276.247" width="55.0459" height="5.73394" fill="#D9D9D9"/>
<path d="M506.676 537.895L509.919 490.828M524.356 281.297H584.085M524.356 281.297L521.393 324.302M524.356 281.297L523.524 318.336M524.356 281.297L528.191 277.918C529.412 276.841 530.985 276.247 532.613 276.247H587.609M584.085 281.297L587.609 324.302M584.085 281.297L587.609 276.247M605.11 537.895L601.254 490.828M521.393 324.302H587.609M521.393 324.302L518.792 362.051M587.609 324.302L590.702 362.051M518.792 362.051H590.702M518.792 362.051L516.059 401.712M590.702 362.051L593.952 401.712M516.059 401.712H593.952M516.059 401.712L513.162 443.761M593.952 401.712L597.397 443.761M513.162 443.761H597.397M513.162 443.761L509.919 490.828M597.397 443.761L601.254 490.828M509.919 490.828H601.254M518.792 529.114L519.796 484.389M520.8 439.664L519.796 484.389M520.8 439.664L521.791 395.513M520.8 439.664H604.537M519.796 484.389H609.169M521.791 395.513L522.693 355.376L523.524 318.336M521.791 395.513H599.963M523.524 318.336H591.969M587.609 276.247L591.969 318.336M613.802 529.114L604.537 439.664M604.537 439.664L599.963 395.513M599.963 395.513L595.806 355.376M523.524 355.376H595.806M595.806 355.376L591.969 318.336" stroke="#D2D2D2" stroke-width="3.8227" stroke-linecap="round"/>
<path d="M497.412 449.184C492.156 450.299 481.165 453.675 479.254 458.263" stroke="#6DDB19" stroke-width="3.8227" stroke-linecap="round"/>
<path d="M527.986 419.224C533.6 433.767 540.112 463.418 521.246 465.678C513.288 467.249 496.147 461.794 495.129 426.545" stroke="#9AEC5B" stroke-width="12.9613" stroke-linecap="round"/>
<path d="M519.551 486.629L518.34 482.367M515.113 471L518.34 482.367M518.34 482.367C516.916 485.159 513.53 488.851 508.766 487.133" stroke="#9AEC5B" stroke-width="5.55486" stroke-linecap="round"/>
<path d="M529 481.244L529.072 476.814M529.264 465L529.072 476.814M529.072 476.814C531.167 479.146 535.39 481.841 539.551 478.954" stroke="#9AEC5B" stroke-width="5.55486" stroke-linecap="round"/>
<circle cx="479.256" cy="459.215" r="5.25621" fill="#6DDB19"/>
<path d="M403.201 537.47V490.803L417.922 484.493C418.176 484.385 418.449 484.329 418.724 484.329H483.227V533.933C483.227 534.529 482.966 535.094 482.514 535.481L477.806 539.507H405.237C404.113 539.507 403.201 538.595 403.201 537.47Z" fill="#F2CC6B" stroke="#F0BF42" stroke-width="4.07337" stroke-linecap="round"/>
<path d="M416.037 484.907V438.239L430.758 431.93C431.012 431.821 431.285 431.765 431.56 431.765H496.063V481.37C496.063 481.965 495.802 482.531 495.35 482.918L490.642 486.944H418.073C416.949 486.944 416.037 486.032 416.037 484.907Z" fill="#F2CC6B" stroke="#F0BF42" stroke-width="4.07337" stroke-linecap="round"/>
<path d="M536.6 443.925C539.944 448.225 523 471 502.5 466" stroke="#6DDB19" stroke-width="3.8227" stroke-linecap="round"/>
<circle cx="497.256" cy="465.256" r="5.25621" fill="#6DDB19"/>
<circle cx="417.256" cy="488.256" r="5.25621" fill="#9AEC5B"/>
<path d="M469.649 479.423C471.966 494.839 471.873 525.196 452.967 523.299C444.858 523.101 429.314 514.049 435.987 479.423" stroke="#9AEC5B" stroke-width="12.9613" stroke-linecap="round"/>
<path d="M448.512 542.497L448.512 538.066M448.512 526.251L448.512 538.066M448.512 538.066C446.379 540.364 442.113 542.989 437.999 540.035" stroke="#9AEC5B" stroke-width="5.55486" stroke-linecap="round"/>
<path d="M462 542.246V537.815M462 526V537.815M462 537.815C464.133 540.113 468.399 542.738 472.512 539.785" stroke="#9AEC5B" stroke-width="5.55486" stroke-linecap="round"/>
<path d="M474.934 502.756C477.164 502.437 482.006 500.367 483.535 494.633" stroke="#9AEC5B" stroke-width="3.8227" stroke-linecap="round"/>
<path d="M418.001 492C418.32 494.23 429.02 504.538 434.754 506.067" stroke="#9AEC5B" stroke-width="3.8227" stroke-linecap="round"/>
<circle cx="484.971" cy="490.812" r="5.25621" fill="#9AEC5B"/>
<defs>
<linearGradient id="paint0_linear_1634_36221" x1="515.25" y1="5.27543e-08" x2="511.995" y2="632.834" gradientUnits="userSpaceOnUse">
<stop stop-color="#FFFFFE"/>
<stop offset="0.400297" stop-color="#3B8FF7"/>
<stop offset="0.756667" stop-color="#0051B2"/>
</linearGradient>
</defs>
</svg>
