<svg width="960" height="783" viewBox="0 0 960 783" fill="none" xmlns="http://www.w3.org/2000/svg">
<rect width="960" height="783" fill="url(#paint0_linear_1482_44299)"/>
<ellipse cx="479.72" cy="542.303" rx="251.72" ry="36.6972" fill="#00499F"/>
<path d="M345.865 534.602V487.934L360.586 481.625C360.84 481.517 361.113 481.461 361.389 481.461H425.891V531.065C425.891 531.661 425.63 532.226 425.178 532.613L420.47 536.639H347.901C346.777 536.639 345.865 535.727 345.865 534.602Z" fill="#DBA316" stroke="#CF9911" stroke-width="4.07337" stroke-linecap="round"/>
<path d="M355.423 484.908V444.12L368.244 438.621C368.498 438.512 368.771 438.456 369.047 438.456H425.893V482.019C425.893 482.614 425.632 483.179 425.18 483.566L421.233 486.944H357.46C356.335 486.944 355.423 486.032 355.423 484.908Z" fill="#E6B432" stroke="#D4A01A" stroke-width="4.07337" stroke-linecap="round"/>
<path d="M403.201 537.47V490.803L417.922 484.493C418.176 484.385 418.449 484.329 418.724 484.329H483.227V533.933C483.227 534.529 482.966 535.094 482.514 535.481L477.806 539.507H405.237C404.113 539.507 403.201 538.595 403.201 537.47Z" fill="#F2CC6B" stroke="#F0BF42" stroke-width="4.07337" stroke-linecap="round"/>
<path d="M398.423 484.907V438.239L413.145 431.93C413.398 431.821 413.671 431.765 413.947 431.765H478.449V481.37C478.449 481.965 478.189 482.531 477.736 482.918L473.029 486.944H400.46C399.335 486.944 398.423 486.032 398.423 484.907Z" fill="#F2CC6B" stroke="#F0BF42" stroke-width="4.07337" stroke-linecap="round"/>
<path d="M407.986 433.301V386.634L422.707 380.324C422.961 380.216 423.234 380.16 423.51 380.16H488.012V429.764C488.012 430.36 487.751 430.925 487.299 431.312L482.591 435.338H410.023C408.898 435.338 407.986 434.426 407.986 433.301Z" fill="#F2CC6B" stroke="#F0BF42" stroke-width="4.07337" stroke-linecap="round"/>
<path d="M400.337 381.696V335.028L415.059 328.719C415.312 328.61 415.585 328.554 415.861 328.554H480.363V378.159C480.363 378.754 480.103 379.32 479.65 379.707L474.943 383.733H402.374C401.249 383.733 400.337 382.821 400.337 381.696Z" fill="#F2CC6B" stroke="#F0BF42" stroke-width="4.07337" stroke-linecap="round"/>
<path d="M423.275 329.132V282.464L437.996 276.154C438.25 276.046 438.523 275.99 438.799 275.99H503.301V325.595C503.301 326.19 503.04 326.756 502.588 327.142L497.88 331.168H425.312C424.187 331.168 423.275 330.256 423.275 329.132Z" fill="#F2CC6B" stroke="#F0BF42" stroke-width="4.07337" stroke-linecap="round"/>
<rect x="529.613" y="276.247" width="55.0459" height="5.73394" fill="#D9D9D9"/>
<path d="M506.676 537.895L509.919 490.828M524.356 281.297H584.085M524.356 281.297L521.393 324.302M524.356 281.297L523.524 318.336M524.356 281.297L528.191 277.918C529.412 276.841 530.985 276.247 532.613 276.247H587.609M584.085 281.297L587.609 324.302M584.085 281.297L587.609 276.247M605.11 537.895L601.254 490.828M521.393 324.302H587.609M521.393 324.302L518.792 362.051M587.609 324.302L590.702 362.051M518.792 362.051H590.702M518.792 362.051L516.059 401.712M590.702 362.051L593.952 401.712M516.059 401.712H593.952M516.059 401.712L513.162 443.761M593.952 401.712L597.397 443.761M513.162 443.761H597.397M513.162 443.761L509.919 490.828M597.397 443.761L601.254 490.828M509.919 490.828H601.254M518.792 529.114L519.796 484.389M520.8 439.664L519.796 484.389M520.8 439.664L521.791 395.513M520.8 439.664H604.537M519.796 484.389H609.169M521.791 395.513L522.693 355.376L523.524 318.336M521.791 395.513H599.963M523.524 318.336H591.969M587.609 276.247L591.969 318.336M613.802 529.114L604.537 439.664M604.537 439.664L599.963 395.513M599.963 395.513L595.806 355.376M523.524 355.376H595.806M595.806 355.376L591.969 318.336" stroke="#D2D2D2" stroke-width="3.8227" stroke-linecap="round"/>
<path d="M523.205 234.184C517.948 235.299 506.958 238.675 505.047 243.263" stroke="#6DDB19" stroke-width="3.8227" stroke-linecap="round"/>
<path d="M553.779 204.224C559.393 218.767 565.905 248.418 547.039 250.678C539.081 252.249 521.94 246.794 520.922 211.545" stroke="#9AEC5B" stroke-width="12.9613" stroke-linecap="round"/>
<path d="M540.891 274.32L540.891 269.889M540.891 258.074L540.891 269.889M540.891 269.889C538.758 272.187 534.492 274.813 530.378 271.859" stroke="#9AEC5B" stroke-width="5.55486" stroke-linecap="round"/>
<path d="M566.648 262.68L563.532 259.53M555.221 251.132L563.532 259.53M563.532 259.53C566.664 259.663 571.543 258.529 572.389 253.536" stroke="#9AEC5B" stroke-width="5.55486" stroke-linecap="round"/>
<path d="M562.392 228.925C565.737 233.225 530.855 249.472 526.555 247.56" stroke="#6DDB19" stroke-width="3.8227" stroke-linecap="round"/>
<circle cx="505.049" cy="244.215" r="5.25621" fill="#6DDB19"/>
<circle cx="525.12" cy="249.952" r="5.25621" fill="#6DDB19"/>
<path d="M580.096 479.454C585.71 493.997 592.221 523.648 573.355 525.907C565.397 527.478 548.256 522.023 547.239 486.774" stroke="#9AEC5B" stroke-width="12.9613" stroke-linecap="round"/>
<path d="M568.156 545.727L568.156 541.296M568.156 529.48L568.156 541.296M568.156 541.296C566.023 543.593 561.757 546.219 557.644 543.265" stroke="#9AEC5B" stroke-width="5.55486" stroke-linecap="round"/>
<path d="M583.309 544.471L582.162 540.191M579.104 528.778L582.162 540.191M582.162 540.191C584.817 541.858 589.617 543.29 592.826 539.372" stroke="#9AEC5B" stroke-width="5.55486" stroke-linecap="round"/>
<path d="M590.57 505.986C592.8 505.667 597.642 503.596 599.171 497.862" stroke="#9AEC5B" stroke-width="3.8227" stroke-linecap="round"/>
<path d="M549.252 514.8C547.591 516.321 545.116 530.971 547.088 536.568" stroke="#9AEC5B" stroke-width="3.8227" stroke-linecap="round"/>
<circle cx="600.608" cy="494.042" r="5.25621" fill="#9AEC5B"/>
<circle cx="548.045" cy="537.047" r="5.25621" fill="#9AEC5B"/>
<path d="M434.74 271.793V225.125L449.461 218.816C449.715 218.707 449.988 218.651 450.264 218.651H514.766V268.256C514.766 268.851 514.505 269.417 514.053 269.804L509.345 273.829H436.776C435.652 273.829 434.74 272.918 434.74 271.793Z" fill="#F2CC6B" stroke="#F0BF42" stroke-width="4.07337" stroke-linecap="round"/>
<defs>
<linearGradient id="paint0_linear_1482_44299" x1="515.787" y1="5.27543e-08" x2="512.535" y2="632.834" gradientUnits="userSpaceOnUse">
<stop stop-color="#FFFFFE"/>
<stop offset="0.400297" stop-color="#3B8FF7"/>
<stop offset="0.756667" stop-color="#0051B2"/>
</linearGradient>
</defs>
</svg>
