<svg width="50" height="50" viewBox="0 0 40 40" fill="none" xmlns="http://www.w3.org/2000/svg">
<path fill-rule="evenodd" clip-rule="evenodd" d="M20.7876 6.11426C21.9696 6.445 22.8453 7.40914 23.2793 8.13238L23.31 8.18365L25.4585 12.7966C25.5992 13.0987 25.9023 13.2919 26.2355 13.2919L30.4293 13.2921C30.6698 13.2921 30.9604 13.3172 31.2631 13.4147C32.5804 13.8387 33.3029 14.7338 33.5288 15.7691C33.7332 16.7054 33.5072 17.6277 33.2531 18.2393C33.1384 18.5154 32.9824 18.7375 32.8424 18.9075L30.133 22.1976L30.094 22.2366C29.6856 22.645 29.3667 23.1656 29.1663 23.6657C28.9522 24.2003 28.9317 24.5608 28.9477 24.6601C28.9504 24.6765 28.9548 24.6979 28.9676 24.7561L28.9692 24.7634C28.9799 24.812 28.9976 24.8924 29.0115 24.9786L29.6925 29.207C30.0484 30.6717 29.8931 31.9285 28.9965 32.7168C28.1785 33.4361 27.107 33.4177 26.4947 33.3212C26.1588 33.2682 25.8783 33.1444 25.6681 33.0315L21.108 30.581C20.8386 30.4362 20.6129 30.2556 20.4688 30.1404L20.4569 30.1309C20.2274 29.9473 20.0521 29.9336 19.9109 29.9534C19.7299 29.9787 19.5397 30.0761 19.4014 30.1888C19.3912 30.1971 19.379 30.2071 19.3653 30.2185C19.2841 30.2855 19.1458 30.3996 19.0017 30.4957L15.21 33.0235C14.8842 33.2407 14.4705 33.4327 13.9895 33.4901C13.2123 33.5827 12.5076 33.5016 11.9031 33.2181C11.2885 32.9298 10.865 32.473 10.5963 31.9693C10.0936 31.0272 10.1281 29.9322 10.2652 29.2303L10.9509 25.1161C10.9786 24.9495 11.0187 24.7995 11.0532 24.6806C11.3707 23.5869 10.8782 22.7151 10.616 22.4224L7.30231 19.7717C7.10584 19.6146 6.89584 19.4107 6.72035 19.1478C5.85923 17.8577 5.81769 16.5901 6.34412 15.5303C6.82189 14.5686 7.6894 13.9332 8.37154 13.5804C8.80511 13.3562 9.25337 13.2921 9.63152 13.2921L14.289 13.2919C14.6463 13.2919 14.9661 13.0702 15.0916 12.7357L16.6838 8.48965C16.7488 8.31632 16.8361 8.12883 16.9536 7.94588C17.4572 7.16182 18.0498 6.58929 18.7392 6.27255C19.4465 5.94755 20.157 5.9378 20.7876 6.11426ZM19.6935 8.34951C19.5115 8.43312 19.2203 8.64635 18.8769 9.18105C18.8634 9.20203 18.8441 9.2386 18.824 9.29221L17.2317 13.5383C16.7718 14.7649 15.5992 15.5775 14.2891 15.5776L9.63162 15.5778C9.50095 15.5778 9.44001 15.6011 9.42163 15.6106C8.97001 15.8442 8.57009 16.1871 8.39117 16.5472C8.26091 16.8095 8.17342 17.2076 8.62148 17.8788C8.63322 17.8964 8.66319 17.9333 8.73009 17.9868L12.153 20.7249L12.1978 20.7697C12.8725 21.4444 13.8711 23.1726 13.2483 25.318C13.2245 25.3997 13.2121 25.4525 13.2055 25.4919L12.514 29.641L12.5104 29.6591C12.4239 30.0915 12.4529 30.5933 12.6129 30.8933C12.6779 31.015 12.7577 31.0943 12.8737 31.1487C12.9998 31.2078 13.2531 31.276 13.719 31.2204C13.7568 31.2159 13.8332 31.1943 13.9421 31.1217L17.7338 28.5939C17.7735 28.5674 17.8066 28.5404 17.8833 28.4775C17.9045 28.4602 17.929 28.4401 17.9579 28.4166C18.333 28.1111 18.9012 27.7868 19.5938 27.6897C20.3262 27.5871 21.1397 27.7502 21.8843 28.3457C22.0459 28.4749 22.123 28.5316 22.19 28.5676L26.75 31.018C26.789 31.039 26.8162 31.0509 26.8342 31.0576C26.8447 31.0616 26.8506 31.0632 26.8524 31.0636C27.0108 31.0884 27.1677 31.091 27.295 31.0699C27.4213 31.049 27.4723 31.0134 27.4873 31.0002C27.4873 31.0002 27.4872 31.0003 27.4873 31.0002C27.4911 30.9972 27.5383 30.9599 27.5667 30.7988C27.5996 30.6122 27.6027 30.2715 27.4629 29.7121L27.4511 29.6648L26.7548 25.342C26.7522 25.3259 26.7479 25.3046 26.7351 25.2467L26.7334 25.2389C26.7228 25.1905 26.7052 25.1104 26.6913 25.0248C26.5805 24.3388 26.7602 23.5254 27.0445 22.8157C27.3364 22.0871 27.8004 21.311 28.4368 20.6617L31.078 17.4545C31.1026 17.4245 31.1187 17.4019 31.1291 17.3857C31.1393 17.3697 31.1424 17.3622 31.1423 17.3624C31.2935 16.9985 31.365 16.5742 31.2957 16.2565C31.2649 16.1152 31.2088 16.0035 31.1223 15.9094C31.0353 15.8147 30.8738 15.6906 30.5627 15.5904C30.5541 15.5877 30.5156 15.5778 30.4292 15.5778L26.2354 15.5776C25.0135 15.5775 23.9024 14.8693 23.3865 13.7617L21.2911 9.2626C21.0202 8.83423 20.5689 8.42658 20.1717 8.31543C20.0057 8.26898 19.8575 8.27417 19.6935 8.34951Z" fill="#FFE459"/>
</svg>
