<svg width="50" height="50" viewBox="0 0 28 28" fill="none" xmlns="http://www.w3.org/2000/svg">
<path fill-rule="evenodd" clip-rule="evenodd" d="M14.5506 4.28018C15.378 4.51169 15.9909 5.18659 16.2947 5.69286L16.3162 5.72875L17.8202 8.95783C17.9187 9.16928 18.1308 9.30449 18.3641 9.3045L21.2997 9.30464C21.4681 9.30465 21.6715 9.32226 21.8834 9.39046C22.8055 9.68726 23.3112 10.3138 23.4694 11.0386C23.6125 11.694 23.4542 12.3396 23.2764 12.7677C23.1961 12.961 23.0869 13.1165 22.9889 13.2354L21.0924 15.5385L21.065 15.5658C20.7792 15.8517 20.5559 16.2161 20.4156 16.5662C20.2657 16.9404 20.2514 17.1928 20.2626 17.2623C20.2645 17.2737 20.2676 17.2887 20.2765 17.3294L20.2777 17.3345C20.2852 17.3686 20.2975 17.4249 20.3072 17.4852L20.784 20.4451C21.0331 21.4704 20.9244 22.3502 20.2968 22.902C19.7242 23.4054 18.9741 23.3926 18.5455 23.325C18.3104 23.2879 18.114 23.2013 17.9669 23.1222L14.7748 21.4069C14.5863 21.3056 14.4282 21.1791 14.3274 21.0985L14.3191 21.0918C14.1584 20.9633 14.0357 20.9537 13.9369 20.9675C13.8102 20.9853 13.677 21.0535 13.5802 21.1324C13.573 21.1382 13.5645 21.1452 13.5549 21.1531C13.4981 21.2 13.4013 21.2799 13.3004 21.3472L10.6462 23.1167C10.4181 23.2687 10.1286 23.4031 9.79188 23.4432C9.24781 23.5081 8.75451 23.4513 8.33138 23.2528C7.90114 23.0511 7.60474 22.7313 7.41662 22.3787C7.06477 21.7192 7.08891 20.9527 7.18485 20.4614L7.66483 17.5815C7.68427 17.4648 7.7123 17.3599 7.73646 17.2766C7.95874 16.511 7.61393 15.9007 7.43045 15.6959L5.11083 13.8404C4.97331 13.7304 4.82631 13.5877 4.70347 13.4037C4.10068 12.5006 4.0716 11.6132 4.4401 10.8714C4.77454 10.1982 5.3818 9.75346 5.8593 9.50649C6.1628 9.34951 6.47658 9.30465 6.74129 9.30464L10.0015 9.3045C10.2516 9.30449 10.4755 9.14935 10.5633 8.91518L11.6779 5.94295C11.7234 5.82162 11.7845 5.69038 11.8668 5.56231C12.2192 5.01347 12.6341 4.6127 13.1166 4.39098C13.6118 4.16348 14.1091 4.15666 14.5506 4.28018ZM13.7847 5.84485C13.6573 5.90338 13.4534 6.05264 13.213 6.42693C13.2036 6.44162 13.1901 6.46722 13.176 6.50475L12.0614 9.47697C11.7395 10.3356 10.9186 10.9045 10.0016 10.9045L6.74135 10.9046C6.64988 10.9046 6.60722 10.921 6.59436 10.9276C6.27822 11.0912 5.99828 11.3311 5.87304 11.5833C5.78185 11.7668 5.72061 12.0455 6.03425 12.5154C6.04248 12.5277 6.06345 12.5535 6.11028 12.591L8.50634 14.5076L8.53769 14.539C9.00998 15.0113 9.70902 16.221 9.273 17.7228C9.25639 17.78 9.24766 17.8169 9.24306 17.8445L8.759 20.7489L8.75647 20.7615C8.69593 21.0642 8.71622 21.4155 8.82827 21.6255C8.87374 21.7107 8.92962 21.7662 9.0108 21.8043C9.0991 21.8457 9.27638 21.8934 9.6025 21.8545C9.62897 21.8513 9.68246 21.8362 9.75869 21.7854L12.4129 20.0159C12.4407 19.9974 12.4638 19.9784 12.5176 19.9344C12.5324 19.9223 12.5495 19.9083 12.5698 19.8918C12.8323 19.6779 13.23 19.4509 13.7149 19.383C14.2276 19.3112 14.797 19.4254 15.3183 19.8422C15.4314 19.9326 15.4853 19.9723 15.5322 19.9975L18.7243 21.7128C18.7515 21.7275 18.7706 21.7358 18.7832 21.7405C18.7905 21.7433 18.7947 21.7444 18.7959 21.7447C18.9068 21.7621 19.0166 21.7639 19.1057 21.7491C19.1941 21.7345 19.2298 21.7096 19.2403 21.7003C19.2402 21.7004 19.2403 21.7003 19.2403 21.7003C19.243 21.6983 19.276 21.6722 19.2959 21.5593C19.3189 21.4288 19.3211 21.1902 19.2232 20.7987L19.215 20.7656L18.7276 17.7396C18.7258 17.7283 18.7227 17.7134 18.7138 17.6729L18.7126 17.6675C18.7052 17.6335 18.6928 17.5775 18.6831 17.5175C18.6055 17.0374 18.7314 16.468 18.9304 15.9712C19.1347 15.4612 19.4595 14.9179 19.905 14.4634L21.7538 12.2183C21.7711 12.1974 21.7823 12.1816 21.7896 12.1702C21.7967 12.159 21.7989 12.1537 21.7988 12.1538C21.9046 11.8991 21.9547 11.6021 21.9062 11.3798C21.8846 11.2809 21.8454 11.2027 21.7849 11.1368C21.7239 11.0705 21.6109 10.9836 21.3931 10.9135C21.3871 10.9116 21.3602 10.9046 21.2997 10.9046L18.364 10.9045C17.5087 10.9045 16.7309 10.4087 16.3698 9.63336L14.903 6.48401C14.7134 6.18416 14.3975 5.8988 14.1194 5.821C14.0032 5.78848 13.8994 5.79211 13.7847 5.84485Z" fill="#FFE459"/>
</svg>
