<svg width="50" height="50" viewBox="0 0 28 28" fill="none" xmlns="http://www.w3.org/2000/svg">
<path fill-rule="evenodd" clip-rule="evenodd" d="M16.2947 5.69286C15.9909 5.18659 15.378 4.51169 14.5506 4.28018C14.1091 4.15666 13.6118 4.16348 13.1166 4.39098C12.6341 4.6127 12.2192 5.01347 11.8668 5.56231C11.7845 5.69038 11.7234 5.82162 11.6779 5.94295L10.5633 8.91518C10.4755 9.14935 10.2516 9.30449 10.0015 9.3045L6.74129 9.30464C6.47658 9.30465 6.1628 9.34951 5.8593 9.50649C5.3818 9.75346 4.77454 10.1982 4.4401 10.8714C4.0716 11.6132 4.10068 12.5006 4.70347 13.4037C4.82631 13.5877 4.97331 13.7304 5.11083 13.8404L7.43045 15.6959C7.61393 15.9007 7.95874 16.511 7.73646 17.2766C7.7123 17.3599 7.68427 17.4648 7.66483 17.5815L7.18485 20.4614C7.08891 20.9527 7.06477 21.7192 7.41662 22.3787C7.60474 22.7313 7.90114 23.0511 8.33138 23.2528C8.75451 23.4513 9.24781 23.5081 9.79188 23.4432C10.1286 23.4031 10.4181 23.2687 10.6462 23.1167L13.3004 21.3472C13.4013 21.28 13.4981 21.2001 13.5549 21.1532L13.5549 21.1531L13.5802 21.1324C13.677 21.0535 13.8102 20.9853 13.9369 20.9675C14.0357 20.9537 14.1584 20.9633 14.3191 21.0918L14.3274 21.0985C14.4282 21.1791 14.5863 21.3056 14.7748 21.4069L17.9669 23.1222C18.114 23.2013 18.3104 23.2879 18.5455 23.325C18.9741 23.3926 19.7242 23.4054 20.2968 22.902C20.9244 22.3502 21.0331 21.4704 20.784 20.4451L20.3072 17.4852C20.2975 17.4249 20.2852 17.3686 20.2777 17.3345L20.2765 17.3294C20.2676 17.2887 20.2645 17.2737 20.2626 17.2623C20.2514 17.1928 20.2657 16.9404 20.4156 16.5662C20.5559 16.2161 20.7792 15.8517 21.065 15.5658L21.0924 15.5385L21.1169 15.5087L22.9889 13.2354C23.0869 13.1165 23.1961 12.961 23.2764 12.7677C23.4542 12.3396 23.6125 11.694 23.4694 11.0386C23.3112 10.3138 22.8055 9.68726 21.8834 9.39046C21.6715 9.32226 21.4681 9.30465 21.2997 9.30464L18.3641 9.3045C18.1308 9.30449 17.9187 9.16928 17.8202 8.95783L16.3339 5.76669L16.3162 5.72875L16.2947 5.69286Z" fill="#FFE459"/>
</svg>
