<svg width="50" height="50" viewBox="0 0 28 28" fill="none" xmlns="http://www.w3.org/2000/svg">
<path d="M15.327 5.98462L16.6798 10.0429C16.8703 10.6146 17.4053 11.0002 18.0079 11.0002H21.6302C22.9922 11.0002 23.5522 12.7478 22.4439 13.5394L19.8403 15.3992C19.3401 15.7564 19.1315 16.398 19.3258 16.9811L20.7678 21.307C21.1828 22.552 19.8106 23.6325 18.6976 22.9369L14.7409 20.4639C14.2869 20.1802 13.7108 20.1802 13.2569 20.4639L9.30007 22.9369C8.18715 23.6325 6.8149 22.552 7.22992 21.307L8.67188 16.9811C8.86623 16.398 8.65758 15.7564 8.15745 15.3992L5.55378 13.5394C4.44549 12.7478 5.00553 11.0002 6.36751 11.0002H9.9898C10.5924 11.0002 11.1274 10.6146 11.318 10.0429L12.6707 5.98463C13.0962 4.70825 14.9016 4.70825 15.327 5.98462Z" fill="#FFE459"/>
<path fill-rule="evenodd" clip-rule="evenodd" d="M11.9125 5.73184C12.5811 3.72611 15.4181 3.7261 16.0867 5.73184L17.4395 9.79009C17.5211 10.0351 17.7504 10.2004 18.0087 10.2004H21.6309C23.7712 10.2004 24.6513 12.9466 22.9097 14.1906L20.306 16.0503C20.0917 16.2034 20.0022 16.4784 20.0855 16.7283L21.5275 21.0542C22.1797 23.0107 20.0233 24.7085 18.2744 23.6155L14.3176 21.1425C14.123 21.0209 13.8762 21.0209 13.6816 21.1425L9.72481 23.6155C7.97594 24.7085 5.81954 23.0107 6.47171 21.0542L7.91367 16.7283C7.99697 16.4784 7.90754 16.2034 7.69321 16.0503L5.08953 14.1906C3.34794 12.9466 4.22801 10.2004 6.36825 10.2004H9.99054C10.2488 10.2004 10.4781 10.0351 10.5597 9.79009L11.9125 5.73184ZM14.5688 6.2378C14.3865 5.69079 13.6127 5.69078 13.4304 6.2378L12.0776 10.2961C11.7782 11.1944 10.9375 11.8004 9.99054 11.8004H6.36825C5.78455 11.8004 5.54453 12.5493 6.01951 12.8886L8.62319 14.7484C9.4091 15.3097 9.73698 16.318 9.43156 17.2343L7.9896 21.5602C7.81174 22.0938 8.39985 22.5568 8.87681 22.2587L12.8336 19.7857C13.547 19.3398 14.4522 19.3398 15.1656 19.7857L19.1224 22.2587C19.5993 22.5568 20.1875 22.0938 20.0096 21.5602L18.5676 17.2343C18.2622 16.318 18.5901 15.3097 19.376 14.7484L21.9797 12.8886C22.4547 12.5493 22.2147 11.8004 21.6309 11.8004H18.0087C17.0617 11.8004 16.221 11.1944 15.9216 10.2961L14.5688 6.2378Z" fill="#FFE459"/>
</svg>
