<svg width="50" height="50" viewBox="0 0 28 28" fill="none" xmlns="http://www.w3.org/2000/svg">
<path fill-rule="evenodd" clip-rule="evenodd" d="M16.3087 5.71887C15.9637 5.09206 15.574 4.63931 15.0129 4.40171C14.5338 4.19881 14.0096 4.19961 13.573 4.20027L13.5 4.20035C13.4188 4.20035 13.3404 4.21244 13.2666 4.23494C12.9581 4.20616 12.6856 4.33232 12.5026 4.48181C12.2824 4.66172 12.1337 4.90871 12.03 5.14493C11.9472 5.3333 11.8558 5.53789 11.7498 5.75979L11.7349 5.79115L10.5633 8.9153C10.4755 9.14947 10.2516 9.30462 10.0015 9.30463L6.74129 9.30476C6.47658 9.30477 6.1628 9.34963 5.8593 9.50661C5.3818 9.75359 4.77454 10.1983 4.4401 10.8716C4.0716 11.6134 4.10068 12.5007 4.70347 13.4038C4.82631 13.5878 4.9733 13.7305 5.11083 13.8405L7.43044 15.696C7.61392 15.9009 7.95874 16.5112 7.73646 17.2768C7.7123 17.36 7.68427 17.465 7.66483 17.5816L7.18485 20.4615C7.08891 20.9529 7.06477 21.7193 7.41662 22.3788C7.60474 22.7314 7.90114 23.0512 8.33139 23.253C8.75451 23.4514 9.24781 23.5082 9.79188 23.4434C10.1286 23.4032 10.4181 23.2688 10.6462 23.1168L13.3009 21.347C13.3822 21.2928 13.562 21.1729 13.7064 20.9786C13.7178 20.9632 13.7279 20.949 13.7366 20.9364C13.7632 20.9494 13.7884 20.9617 13.8123 20.9734L13.8134 20.974C14.1265 21.1273 14.2204 21.1733 14.6372 21.3336L17.966 23.1224C18.1132 23.2015 18.3096 23.2881 18.5447 23.3252C18.9733 23.3928 19.7233 23.4056 20.296 22.9021C20.9236 22.3503 21.0323 21.4706 20.7831 20.4453L20.3064 17.4854C20.2967 17.4251 20.2843 17.3688 20.2768 17.3347L20.2757 17.3296C20.2667 17.2889 20.2637 17.2739 20.2618 17.2624C20.2506 17.193 20.2649 16.9406 20.4148 16.5664C20.555 16.2163 20.7783 15.8519 21.0642 15.566L21.0915 15.5387L21.1161 15.5089L22.9881 13.2356C23.086 13.1167 23.1953 12.9612 23.2756 12.7679C23.4534 12.3398 23.6116 11.6942 23.4686 11.0388C23.3104 10.314 22.8046 9.68745 21.8825 9.39065C21.6707 9.32245 21.4673 9.30484 21.2989 9.30483L18.3632 9.30469C18.13 9.30468 17.9178 9.16947 17.8194 8.95802L16.3331 5.76688L16.3217 5.74247L16.3087 5.71887ZM14.2993 19.4313C14.3084 19.4353 14.3175 19.4395 14.3265 19.4439C14.4029 19.4811 14.4669 19.5124 14.5221 19.5395L14.5225 19.5397C14.8196 19.6853 14.8653 19.7077 15.2573 19.8577L15.3049 19.876L15.3499 19.9001L18.7234 21.713C18.7507 21.7277 18.7697 21.736 18.7823 21.7407C18.7897 21.7435 18.7938 21.7446 18.7951 21.7449C18.906 21.7623 19.0158 21.7641 19.1049 21.7493C19.1933 21.7347 19.229 21.7098 19.2395 21.7005L19.2396 21.7004C19.2423 21.6983 19.2752 21.6723 19.2951 21.5595C19.3181 21.4289 19.3203 21.1904 19.2224 20.7989L19.2141 20.7657L19.2087 20.732L18.7268 17.7398C18.7249 17.7285 18.7219 17.7136 18.713 17.673L18.7118 17.6677L18.7118 17.6677C18.7043 17.6337 18.692 17.5777 18.6823 17.5177C18.6047 17.0376 18.7306 16.4681 18.9296 15.9714C19.1339 15.4614 19.4587 14.9181 19.9042 14.4636L21.753 12.2185C21.7702 12.1975 21.7815 12.1817 21.7887 12.1704C21.7959 12.1592 21.798 12.1539 21.798 12.154C21.9038 11.8993 21.9539 11.6023 21.9054 11.38C21.8838 11.281 21.8446 11.2029 21.784 11.137C21.7231 11.0707 21.6101 10.9838 21.3923 10.9137C21.3863 10.9118 21.3593 10.9048 21.2988 10.9048L18.3632 10.9047C17.5078 10.9047 16.7301 10.4089 16.369 9.63355L14.8945 6.46782C14.639 6.00978 14.4784 5.91292 14.389 5.87506C14.3615 5.86341 14.3323 5.8535 14.2993 5.84508V19.42C14.2993 19.4238 14.2993 19.4276 14.2993 19.4313Z" fill="#FFE459"/>
</svg>
