<svg width="50" height="50" viewBox="0 0 28 28" fill="none" xmlns="http://www.w3.org/2000/svg">
<path fill-rule="evenodd" clip-rule="evenodd" d="M15.9226 5.5043C15.2541 3.49856 12.417 3.49857 11.7484 5.5043L10.3957 9.56255C10.314 9.80755 10.0847 9.97281 9.82647 9.97281H6.20419C4.06394 9.97281 3.18387 12.719 4.92546 13.963L7.52914 15.8228C7.74348 15.9759 7.83291 16.2509 7.74961 16.5008L6.30765 20.8267C5.65547 22.7832 7.81188 24.481 9.56075 23.388L13.5175 20.915C13.7121 20.7934 13.959 20.7934 14.1535 20.915L18.1103 23.388C19.8592 24.481 22.0156 22.7832 21.3634 20.8267L19.9215 16.5008C19.8382 16.2509 19.9276 15.9759 20.1419 15.8228L22.7456 13.963C24.4872 12.719 23.6071 9.97281 21.4669 9.97281H17.8446C17.5863 9.97281 17.3571 9.80755 17.2754 9.56255L15.9226 5.5043ZM13.8355 5.6C14.0746 5.6 14.3136 5.73675 14.4047 6.01026L15.7575 10.0685C16.0569 10.9669 16.8977 11.5728 17.8446 11.5728H21.4669C22.0506 11.5728 22.2906 12.3218 21.8156 12.6611L19.212 14.5208C18.426 15.0822 18.0982 16.0905 18.4036 17.0067L19.8455 21.3326C20.0234 21.8662 19.4353 22.3293 18.9583 22.0312L15.0015 19.5582C14.6448 19.3352 14.2402 19.2238 13.8355 19.2238V5.6Z" fill="#FFE459"/>
</svg>
