<svg width="16" height="15" viewBox="0 0 16 15" fill="none" xmlns="http://www.w3.org/2000/svg">
<path fill-rule="evenodd" clip-rule="evenodd" d="M7.99833 13.5003C11.312 13.5003 13.9983 10.814 13.9983 7.50028C13.9983 4.18657 11.312 1.50028 7.99833 1.50028C4.68462 1.50028 1.99833 4.18657 1.99833 7.50028C1.99833 10.814 4.68462 13.5003 7.99833 13.5003ZM7.99833 14.6431C11.9432 14.6431 15.1412 11.4452 15.1412 7.50028C15.1412 3.55539 11.9432 0.357422 7.99833 0.357422C4.05343 0.357422 0.855469 3.55539 0.855469 7.50028C0.855469 11.4452 4.05343 14.6431 7.99833 14.6431ZM7.99833 3.00028C8.31392 3.00028 8.56975 3.25612 8.56975 3.57171V8.92885C8.56975 9.24444 8.31392 9.50028 7.99833 9.50028C7.68273 9.50028 7.4269 9.24444 7.4269 8.92885V3.57171C7.4269 3.25612 7.68273 3.00028 7.99833 3.00028ZM7.99833 11.786C8.39281 11.786 8.71261 11.4662 8.71261 11.0717C8.71261 10.6772 8.39281 10.3574 7.99833 10.3574C7.60384 10.3574 7.28404 10.6772 7.28404 11.0717C7.28404 11.4662 7.60384 11.786 7.99833 11.786Z" fill="#989C9F"/>
</svg>
