<svg width="38" height="38" viewBox="0 0 38 38" fill="none" xmlns="http://www.w3.org/2000/svg">
<path fill-rule="evenodd" clip-rule="evenodd" d="M14.1159 14.5004V12.3147H12.6381C12.3803 12.3147 12.1624 12.5055 12.1283 12.761L9.96833 28.961C9.92722 29.2693 10.1671 29.5432 10.4781 29.5432H18.3587C18.9268 29.5432 19.3873 30.0038 19.3873 30.5718C19.3873 31.1399 18.9268 31.6004 18.3587 31.6004H10.4781C8.92293 31.6004 7.7237 30.2306 7.92923 28.6891L10.0892 12.4891C10.2596 11.2116 11.3493 10.2575 12.6381 10.2575H14.2152C14.3343 9.6299 14.5766 8.92616 15.025 8.28554C15.7875 7.19624 17.0722 6.40039 19.0016 6.40039C20.931 6.40039 22.2156 7.19624 22.9782 8.28554C23.4266 8.92616 23.6689 9.6299 23.788 10.2575H25.4089C26.6659 10.2575 27.7387 11.1663 27.9453 12.4062L29.0162 18.8313C29.1096 19.3916 28.731 19.9216 28.1707 20.015C27.6104 20.1084 27.0804 19.7298 26.987 19.1695L25.9162 12.7444C25.8748 12.4964 25.6603 12.3147 25.4089 12.3147H23.8873V14.5004C23.8873 15.0685 23.4268 15.529 22.8587 15.529C22.2907 15.529 21.8302 15.0685 21.8302 14.5004V12.3147H16.173V14.5004C16.173 15.0685 15.7125 15.529 15.1445 15.529C14.5764 15.529 14.1159 15.0685 14.1159 14.5004ZM21.2929 9.46524C21.4647 9.71062 21.5875 9.98459 21.6719 10.2575H16.3313C16.4157 9.98459 16.5385 9.71062 16.7103 9.46524C17.0728 8.9474 17.7167 8.45753 19.0016 8.45753C20.2865 8.45753 20.9304 8.9474 21.2929 9.46524ZM24.7873 30.0575C26.9886 30.0575 28.773 28.2731 28.773 26.0718C28.773 23.8706 26.9886 22.0861 24.7873 22.0861C22.5861 22.0861 20.8016 23.8706 20.8016 26.0718C20.8016 28.2731 22.5861 30.0575 24.7873 30.0575ZM24.7873 31.8575C27.9827 31.8575 30.573 29.2672 30.573 26.0718C30.573 22.8765 27.9827 20.2861 24.7873 20.2861C21.5919 20.2861 19.0016 22.8765 19.0016 26.0718C19.0016 29.2672 21.5919 31.8575 24.7873 31.8575ZM24.7873 23.3718C25.2134 23.3718 25.5587 23.7172 25.5587 24.1432V25.3004H26.7159C27.1419 25.3004 27.4873 25.6458 27.4873 26.0718C27.4873 26.4979 27.1419 26.8432 26.7159 26.8432H25.5587V28.0004C25.5587 28.4264 25.2134 28.7718 24.7873 28.7718C24.3613 28.7718 24.0159 28.4264 24.0159 28.0004V26.8432H22.8587C22.4327 26.8432 22.0873 26.4979 22.0873 26.0718C22.0873 25.6458 22.4327 25.3004 22.8587 25.3004H24.0159V24.1432C24.0159 23.7172 24.3613 23.3718 24.7873 23.3718Z" fill="#1B1C1D"/>
</svg>
