<svg width="28" height="28" viewBox="0 0 28 28" fill="none" xmlns="http://www.w3.org/2000/svg">
<path fill-rule="evenodd" clip-rule="evenodd" d="M13.9993 12.4C15.8771 12.4 17.3993 10.8778 17.3993 9C17.3993 7.12223 15.8771 5.6 13.9993 5.6C12.1215 5.6 10.5993 7.12223 10.5993 9C10.5993 10.8778 12.1215 12.4 13.9993 12.4ZM13.9993 14C16.7607 14 18.9993 11.7614 18.9993 9C18.9993 6.23858 16.7607 4 13.9993 4C11.2379 4 8.99931 6.23858 8.99931 9C8.99931 11.7614 11.2379 14 13.9993 14ZM21.1891 17.4375L21.871 18.9065C21.9038 18.9771 21.9746 19.0222 22.0524 19.0222L23.4798 19.0223C23.4962 19.0223 23.513 19.0243 23.5288 19.0287C24.1184 19.1913 24.0342 19.7243 23.9092 19.9925C23.9029 20.0061 23.8946 20.0186 23.8851 20.0302L23.1204 20.9618C22.8124 21.2708 22.6671 21.7304 22.721 21.9368C22.7237 21.9472 22.7264 21.9576 22.7281 21.9683L22.923 23.1822C23.1145 23.9508 22.6248 23.997 22.3549 23.9388C22.3387 23.9353 22.3232 23.9292 22.3086 23.9213L20.9636 23.1962C20.9464 23.1869 20.9306 23.1749 20.9163 23.1616C20.6173 22.8836 20.2995 23.0411 20.162 23.1685C20.1524 23.1774 20.1423 23.1859 20.1313 23.1932L18.996 23.9525C18.9743 23.9671 18.9493 23.9775 18.9235 23.982C18.171 24.1121 18.1085 23.5068 18.1732 23.1822L18.3681 22.0091C18.3698 21.9988 18.3724 21.9886 18.3756 21.9786C18.524 21.5102 18.3035 21.1339 18.1732 21.0032L17.2057 20.2267C17.1925 20.2162 17.1804 20.2037 17.1706 20.19C16.7397 19.5898 17.2187 19.1827 17.5453 19.0373C17.5686 19.027 17.5939 19.0223 17.6194 19.0223L19.2191 19.0222C19.3026 19.0222 19.3772 18.9704 19.4064 18.8923L19.9439 17.4545C19.9481 17.4432 19.9536 17.4318 19.9599 17.4215C20.4318 16.6514 20.9929 17.1096 21.1891 17.4375ZM14.0424 16.8102C14.9933 16.7589 16.3669 16.8923 17.7189 17.3983C18.1327 17.5532 18.5937 17.3433 18.7486 16.9295C18.9034 16.5157 18.6935 16.0547 18.2797 15.8998C16.7108 15.3126 15.1247 15.1526 13.978 15.2114C10.5363 15.2165 8.15862 16.4649 6.60564 18.0771C5.07159 19.6696 4.3754 21.5813 4.20586 22.8978C4.14943 23.336 4.45892 23.737 4.89713 23.7934C5.33534 23.8499 5.73632 23.5404 5.79275 23.1022C5.92321 22.0891 6.48703 20.5065 7.75797 19.1871C9.00679 17.8907 10.9725 16.8114 13.9993 16.8114H14.0209L14.0424 16.8102Z" fill="#0068E6"/>
</svg>
