<svg width="28" height="28" viewBox="0 0 28 28" fill="none" xmlns="http://www.w3.org/2000/svg">
<path fill-rule="evenodd" clip-rule="evenodd" d="M7.10635 5.8002C6.82864 5.8002 6.58722 5.99078 6.52275 6.2609L5.82122 9.2002H9.81612L10.1252 5.8002H7.10635ZM11.7318 5.8002L11.4227 9.2002H16.7013V5.8002H11.7318ZM18.3013 5.8002V9.2002H22.1343L21.4685 6.26736C21.4065 5.99412 21.1636 5.8002 20.8834 5.8002H18.3013ZM22.3388 10.8002H18.3928C18.6013 11.4556 18.9869 11.8009 19.3806 11.9955C19.8924 12.2483 20.4829 12.2729 20.8574 12.2131C21.6028 12.0605 21.9738 11.6803 22.1689 11.2986C22.2531 11.1339 22.3072 10.9628 22.3388 10.8002ZM20.7013 13.8349C20.1118 13.8643 19.3701 13.7749 18.6719 13.4299C18.1883 13.191 17.7423 12.8367 17.3917 12.3458C17.2768 12.4914 17.1515 12.6337 17.0158 12.7692C16.3568 13.4271 15.3986 13.967 14.1699 13.8348C14.0469 13.8216 13.9255 13.8193 13.8081 13.8283C13.1624 13.8776 12.2706 13.7859 11.4622 13.3176C11.0577 13.0833 10.6897 12.7632 10.3917 12.3458C10.2517 12.5232 10.0962 12.6959 9.92506 12.8573C9.28939 13.4566 8.40309 13.9242 7.30125 13.8467V22.1002C7.30125 22.4316 7.56988 22.7002 7.90125 22.7002H20.1012C20.4326 22.7002 20.7013 22.4316 20.7013 22.1002V13.8349ZM5.70125 13.2373C4.92874 12.6902 4.00781 11.6685 4.00781 10.0002C4.00781 9.93765 4.01515 9.87531 4.02967 9.81447L4.96646 5.88946C5.20285 4.899 6.08807 4.2002 7.10635 4.2002H20.8834C21.9108 4.2002 22.8013 4.91126 23.0288 5.91314L23.9164 9.82308L23.9207 9.8433C24.0364 10.4217 23.987 11.2573 23.5936 12.0268C23.3256 12.551 22.9045 13.0302 22.3012 13.3702V22.1002C22.3012 23.3152 21.3163 24.3002 20.1012 24.3002H7.90125C6.68622 24.3002 5.70125 23.3152 5.70125 22.1002V13.2373ZM7.17889 12.2198C7.85363 12.3478 8.38658 12.1088 8.82744 11.6931C9.1085 11.4281 9.33412 11.1044 9.49859 10.8002H5.73964C5.9756 11.4676 6.48328 11.873 6.88783 12.0963C7.00764 12.1624 7.10966 12.2007 7.17889 12.2198ZM11.3928 10.8002H16.4986C16.3459 11.0827 16.1401 11.3826 15.8854 11.6369C15.4625 12.059 14.9573 12.3103 14.3411 12.244C14.1268 12.2209 13.9071 12.216 13.6862 12.2329C13.2672 12.2649 12.7203 12.1973 12.2642 11.9331C11.9181 11.7327 11.5827 11.3972 11.3928 10.8002ZM10.4013 16.8002C10.0699 16.8002 9.80125 17.0688 9.80125 17.4002V20.1002C9.80125 20.4316 10.0699 20.7002 10.4013 20.7002H11.8613C12.1927 20.7002 12.4613 20.4316 12.4613 20.1002V17.4002C12.4613 17.0688 12.1927 16.8002 11.8613 16.8002H10.4013ZM8.20125 17.4002C8.20125 16.1852 9.18622 15.2002 10.4013 15.2002H11.8613C13.0763 15.2002 14.0613 16.1852 14.0613 17.4002V20.1002C14.0613 21.3152 13.0763 22.3002 11.8613 22.3002H10.4013C9.18622 22.3002 8.20125 21.3152 8.20125 20.1002V17.4002Z" fill="#0068E6"/>
</svg>
