<svg width="20" height="21" viewBox="0 0 20 21" fill="none" xmlns="http://www.w3.org/2000/svg">
<path fill-rule="evenodd" clip-rule="evenodd" d="M3.10635 1.8002C2.82864 1.8002 2.58722 1.99078 2.52275 2.2609L1.82122 5.2002H5.81612L6.12516 1.8002H3.10635ZM7.73175 1.8002L7.42271 5.2002H12.7013V1.8002H7.73175ZM14.3013 1.8002V5.2002H18.1343L17.4685 2.26736C17.4065 1.99412 17.1636 1.8002 16.8834 1.8002H14.3013ZM18.3388 6.8002H14.3928C14.6013 7.4556 14.9869 7.80094 15.3806 7.99545C15.8924 8.24832 16.4829 8.27285 16.8574 8.21309C17.6028 8.06048 17.9738 7.68033 18.1689 7.29855C18.2531 7.1339 18.3072 6.9628 18.3388 6.8002ZM16.7013 9.83491C16.1118 9.86428 15.3701 9.77486 14.6719 9.42994C14.1883 9.19101 13.7423 8.8367 13.3917 8.34576C13.2768 8.49137 13.1515 8.63372 13.0158 8.76923C12.3568 9.42708 11.3986 9.96699 10.1699 9.8348C10.0469 9.82156 9.92551 9.81929 9.8081 9.82826C9.16237 9.8776 8.27065 9.78592 7.46218 9.31759C7.05771 9.08329 6.6897 8.76316 6.39168 8.34576C6.25166 8.52321 6.09625 8.69586 5.92506 8.85727C5.28939 9.45662 4.40309 9.92418 3.30125 9.84666V18.1002C3.30125 18.4316 3.56988 18.7002 3.90125 18.7002H16.1012C16.4326 18.7002 16.7013 18.4316 16.7013 18.1002V9.83491ZM1.70125 9.23734C0.928743 8.69016 0.0078125 7.66851 0.0078125 6.0002C0.0078125 5.93765 0.015148 5.87531 0.0296687 5.81447L0.966459 1.88946C1.20285 0.898997 2.08807 0.200195 3.10635 0.200195H16.8834C17.9108 0.200195 18.8013 0.91126 19.0288 1.91314L19.9164 5.82308L19.9207 5.8433C20.0364 6.42174 19.987 7.25725 19.5936 8.02684C19.3256 8.551 18.9045 9.03023 18.3012 9.37018V18.1002C18.3012 19.3152 17.3163 20.3002 16.1012 20.3002H3.90125C2.68622 20.3002 1.70125 19.3152 1.70125 18.1002V9.23734ZM3.17889 8.21977C3.85363 8.34778 4.38658 8.10879 4.82744 7.69312C5.1085 7.42812 5.33412 7.10436 5.49859 6.8002H1.73964C1.9756 7.46763 2.48328 7.87301 2.88783 8.0963C3.00764 8.16243 3.10966 8.20073 3.17889 8.21977ZM7.39282 6.8002H12.4986C12.3459 7.08265 12.1401 7.38265 11.8854 7.63686C11.4625 8.05902 10.9573 8.31028 10.3411 8.24398C10.1268 8.22092 9.90709 8.21603 9.68619 8.23291C9.26723 8.26493 8.72033 8.19734 8.26418 7.93311C7.91814 7.73265 7.58271 7.39717 7.39282 6.8002ZM6.40125 12.8002C6.06988 12.8002 5.80125 13.0688 5.80125 13.4002V16.1002C5.80125 16.4316 6.06988 16.7002 6.40125 16.7002H7.86132C8.19269 16.7002 8.46132 16.4316 8.46132 16.1002V13.4002C8.46132 13.0688 8.19269 12.8002 7.86132 12.8002H6.40125ZM4.20125 13.4002C4.20125 12.1852 5.18622 11.2002 6.40125 11.2002H7.86132C9.07635 11.2002 10.0613 12.1852 10.0613 13.4002V16.1002C10.0613 17.3152 9.07635 18.3002 7.86132 18.3002H6.40125C5.18622 18.3002 4.20125 17.3152 4.20125 16.1002V13.4002Z" fill="#0068E6"/>
</svg>
