<svg width="28" height="28" viewBox="0 0 28 28" fill="none" xmlns="http://www.w3.org/2000/svg">
<path fill-rule="evenodd" clip-rule="evenodd" d="M14.3857 6.37094C14.1624 6.18287 13.8361 6.18287 13.6127 6.37094L6.01274 12.7709C5.87736 12.8849 5.79922 13.0529 5.79922 13.2299V21.5996C5.79922 21.931 6.06785 22.1996 6.39922 22.1996H10.1992V18.5019C10.1992 18.2634 10.236 17.9937 10.3497 17.7265C11.0052 16.1861 12.4903 15.0943 13.9992 15.0943C14.6917 15.0943 15.5931 15.3993 16.3164 15.8789C17.0298 16.3521 17.7992 17.1548 17.7992 18.2628V22.1996H21.5992C21.9306 22.1996 22.1992 21.931 22.1992 21.5996V13.2299C22.1992 13.0529 22.1211 12.8849 21.9857 12.7709L14.3857 6.37094ZM16.1992 22.1996V18.2628C16.1992 17.9497 15.9686 17.5682 15.4321 17.2124C14.9054 16.8631 14.3067 16.6943 13.9992 16.6943C13.236 16.6943 12.2697 17.3008 11.8219 18.353C11.8117 18.3771 11.7992 18.4238 11.7992 18.5019V22.1996H16.1992ZM12.5821 5.14708C13.401 4.45749 14.5974 4.45748 15.4163 5.14708L23.0163 11.5471C23.5127 11.9651 23.7992 12.5809 23.7992 13.2299V21.5996C23.7992 22.8146 22.8142 23.7996 21.5992 23.7996H6.39922C5.18419 23.7996 4.19922 22.8146 4.19922 21.5996V13.2299C4.19922 12.5809 4.48573 11.9651 4.98212 11.5471L12.5821 5.14708Z" fill="#0068E6"/>
</svg>
