<svg width="20" height="20" viewBox="0 0 20 20" fill="none" xmlns="http://www.w3.org/2000/svg">
<path fill-rule="evenodd" clip-rule="evenodd" d="M9.99931 8.4C11.8771 8.4 13.3993 6.87777 13.3993 5C13.3993 3.12223 11.8771 1.6 9.99931 1.6C8.12154 1.6 6.59931 3.12223 6.59931 5C6.59931 6.87777 8.12154 8.4 9.99931 8.4ZM9.99931 10C12.7607 10 14.9993 7.76142 14.9993 5C14.9993 2.23858 12.7607 0 9.99931 0C7.23788 0 4.99931 2.23858 4.99931 5C4.99931 7.76142 7.23788 10 9.99931 10ZM17.1891 13.4375L17.871 14.9065C17.9038 14.9771 17.9746 15.0222 18.0524 15.0222L19.4798 15.0223C19.4962 15.0223 19.513 15.0243 19.5288 15.0287C20.1184 15.1913 20.0342 15.7243 19.9092 15.9925C19.9029 16.0061 19.8946 16.0186 19.8851 16.0302L19.1204 16.9618C18.8124 17.2708 18.6671 17.7304 18.721 17.9368C18.7237 17.9472 18.7264 17.9576 18.7281 17.9683L18.923 19.1822C19.1145 19.9508 18.6248 19.997 18.3549 19.9388C18.3387 19.9353 18.3232 19.9292 18.3086 19.9213L16.9636 19.1962C16.9464 19.1869 16.9306 19.1749 16.9163 19.1616C16.6173 18.8836 16.2995 19.0411 16.162 19.1685C16.1524 19.1774 16.1423 19.1859 16.1313 19.1932L14.996 19.9525C14.9743 19.9671 14.9493 19.9775 14.9235 19.982C14.171 20.1121 14.1085 19.5068 14.1732 19.1822L14.3681 18.0091C14.3698 17.9988 14.3724 17.9886 14.3756 17.9786C14.524 17.5102 14.3035 17.1339 14.1732 17.0032L13.2057 16.2267C13.1925 16.2162 13.1804 16.2037 13.1706 16.19C12.7397 15.5898 13.2187 15.1827 13.5453 15.0373C13.5686 15.027 13.5939 15.0223 13.6194 15.0223L15.2191 15.0222C15.3026 15.0222 15.3772 14.9704 15.4064 14.8923L15.9439 13.4545C15.9481 13.4432 15.9536 13.4318 15.9599 13.4215C16.4318 12.6514 16.9929 13.1096 17.1891 13.4375ZM10.0424 12.8102C10.9933 12.7589 12.3669 12.8923 13.7189 13.3983C14.1327 13.5532 14.5937 13.3433 14.7486 12.9295C14.9034 12.5157 14.6935 12.0547 14.2797 11.8998C12.7108 11.3126 11.1247 11.1526 9.978 11.2114C6.53633 11.2165 4.15862 12.4649 2.60564 14.0771C1.07159 15.6696 0.3754 17.5813 0.205859 18.8978C0.149426 19.336 0.458917 19.737 0.897126 19.7934C1.33534 19.8499 1.73632 19.5404 1.79275 19.1022C1.92321 18.0891 2.48703 16.5065 3.75797 15.1871C5.00679 13.8907 6.97247 12.8114 9.99931 12.8114H10.0209L10.0424 12.8102Z" fill="#0068E6"/>
</svg>
