<svg width="20" height="20" viewBox="0 0 20 20" fill="none" xmlns="http://www.w3.org/2000/svg">
<path fill-rule="evenodd" clip-rule="evenodd" d="M13.3993 5C13.3993 6.87777 11.8771 8.4 9.99931 8.4C8.12154 8.4 6.59931 6.87777 6.59931 5C6.59931 3.12223 8.12154 1.6 9.99931 1.6C11.8771 1.6 13.3993 3.12223 13.3993 5ZM14.9993 5C14.9993 7.76142 12.7607 10 9.99931 10C7.23788 10 4.99931 7.76142 4.99931 5C4.99931 2.23858 7.23788 0 9.99931 0C12.7607 0 14.9993 2.23858 14.9993 5ZM10.0424 12.8102C11.2756 12.7437 13.1875 12.9879 14.8503 13.9211C16.4763 14.8337 17.8792 16.4074 18.2051 19.0963C18.2583 19.5349 18.6569 19.8474 19.0956 19.7942C19.5342 19.741 19.8467 19.3424 19.7935 18.9037C19.3994 15.6522 17.6523 13.6589 15.6333 12.5258C13.6609 11.4188 11.445 11.1362 9.978 11.2114C6.53633 11.2165 4.15862 12.4649 2.60564 14.0771C1.07159 15.6696 0.3754 17.5813 0.205859 18.8978C0.149426 19.336 0.458917 19.737 0.897126 19.7934C1.33534 19.8499 1.73632 19.5404 1.79275 19.1022C1.92321 18.0891 2.48703 16.5065 3.75797 15.1871C5.00679 13.8907 6.97248 12.8114 9.99931 12.8114H10.0209L10.0424 12.8102Z" fill="#0068E6"/>
</svg>
