<svg width="28" height="28" viewBox="0 0 28 28" fill="none" xmlns="http://www.w3.org/2000/svg">
<path fill-rule="evenodd" clip-rule="evenodd" d="M13.9996 5.8002C9.46918 5.8002 5.79922 9.91304 5.79922 13.9999C5.79922 18.4753 9.86352 21.8209 14.0716 22.2035C15.6298 22.3451 17.1404 22.3079 19.0725 22.2603C19.836 22.2414 20.6654 22.221 21.5895 22.2093C21.9314 22.205 22.1999 21.9289 22.1999 21.6001L22.1992 14.5254C21.9536 10.6593 20.875 8.53924 19.4825 7.3609C18.0738 6.16887 16.1824 5.8002 13.9996 5.8002ZM4.19922 13.9999C4.19922 9.08671 8.52926 4.2002 13.9996 4.2002C16.3165 4.2002 18.6749 4.58152 20.516 6.13949C22.3704 7.70865 23.5403 10.332 23.7977 14.4503C23.7987 14.4669 23.7992 14.4835 23.7992 14.5001L23.7999 21.6C23.8 22.8177 22.8141 23.794 21.6097 23.8092C20.7462 23.8201 19.9497 23.8398 19.2012 23.8582C17.225 23.907 15.5832 23.9475 13.9268 23.7969C9.13492 23.3613 4.19922 19.5239 4.19922 13.9999ZM9.69922 10.9999C9.69922 10.558 10.0574 10.1999 10.4992 10.1999H13.9996C14.4415 10.1999 14.7996 10.558 14.7996 10.9999C14.7996 11.4417 14.4415 11.7999 13.9996 11.7999H10.4992C10.0574 11.7999 9.69922 11.4417 9.69922 10.9999ZM9.69922 13.9998C9.69924 13.558 10.0574 13.1999 10.4993 13.1999L17.9993 13.2002C18.4411 13.2002 18.7992 13.5584 18.7992 14.0002C18.7992 14.4421 18.441 14.8002 17.9992 14.8002L10.4992 14.7999C10.0574 14.7999 9.6992 14.4417 9.69922 13.9998ZM9.69922 17.4998C9.69924 17.058 10.0574 16.6999 10.4993 16.6999L17.9993 16.7002C18.4411 16.7002 18.7992 17.0584 18.7992 17.5002C18.7992 17.9421 18.441 18.3002 17.9992 18.3002L10.4992 18.2999C10.0574 18.2999 9.6992 17.9417 9.69922 17.4998Z" fill="#0068E6"/>
</svg>
