<svg width="38" height="38" viewBox="0 0 38 38" fill="none" xmlns="http://www.w3.org/2000/svg">
<path fill-rule="evenodd" clip-rule="evenodd" d="M7.80078 8.71507C7.80078 8.21012 8.21012 7.80078 8.71507 7.80078C10.0663 7.80078 10.886 8.72696 11.3186 9.59215C11.5829 10.1208 11.7471 10.7014 11.8348 11.2296L28.2385 11.2294C29.5009 11.2294 30.5243 12.2527 30.5243 13.5151V14.8247C30.5243 15.0196 30.4993 15.2151 30.4491 15.4051C30.0521 16.9088 29.6399 18.2434 29.2317 19.3039C28.8406 20.3201 28.4045 21.2202 27.9101 21.7279C27.5043 22.1447 26.9795 22.2008 26.677 22.2008H13.8828C13.994 22.399 14.1393 22.591 14.3136 22.7759C14.746 23.2347 15.2978 23.5831 15.7209 23.7827C15.7333 23.7885 15.7681 23.8008 15.8363 23.8008H26.4294C26.9343 23.8008 27.3436 24.2101 27.3436 24.7151C27.3436 25.22 26.9343 25.6294 26.4294 25.6294H15.8363C15.5556 25.6294 15.2441 25.5795 14.9409 25.4365C14.3648 25.1648 13.6086 24.694 12.9829 24.0302C12.3724 23.3824 11.8303 22.4875 11.8019 21.3777L10.1022 12.3124L10.0865 12.2289V12.1439C10.0865 11.6874 9.96559 10.9751 9.683 10.4098C9.40125 9.84626 9.07816 9.62935 8.71507 9.62935C8.21012 9.62935 7.80078 9.22001 7.80078 8.71507ZM13.4739 20.3722H26.6699C26.8762 20.1136 27.1743 19.5587 27.5252 18.6471C27.9008 17.6711 28.2936 16.406 28.6811 14.9383C28.6906 14.9023 28.6957 14.8637 28.6957 14.8247V13.5151C28.6957 13.2626 28.491 13.0579 28.2385 13.0579L12.1024 13.0582L13.4739 20.3722ZM14.4294 29.0579C14.9343 29.0579 15.3436 28.6486 15.3436 28.1436C15.3436 27.6387 14.9343 27.2294 14.4294 27.2294C13.9244 27.2294 13.5151 27.6387 13.5151 28.1436C13.5151 28.6486 13.9244 29.0579 14.4294 29.0579ZM14.4294 30.4294C15.6917 30.4294 16.7151 29.406 16.7151 28.1436C16.7151 26.8813 15.6917 25.8579 14.4294 25.8579C13.167 25.8579 12.1436 26.8813 12.1436 28.1436C12.1436 29.406 13.167 30.4294 14.4294 30.4294ZM25.6294 28.1436C25.6294 28.6486 25.22 29.0579 24.7151 29.0579C24.2101 29.0579 23.8008 28.6486 23.8008 28.1436C23.8008 27.6387 24.2101 27.2294 24.7151 27.2294C25.22 27.2294 25.6294 27.6387 25.6294 28.1436ZM27.0008 28.1436C27.0008 29.406 25.9774 30.4294 24.7151 30.4294C23.4527 30.4294 22.4294 29.406 22.4294 28.1436C22.4294 26.8813 23.4527 25.8579 24.7151 25.8579C25.9774 25.8579 27.0008 26.8813 27.0008 28.1436Z" fill="#1B1C1D"/>
</svg>
