<svg width="21" height="20" viewBox="0 0 21 20" fill="none" xmlns="http://www.w3.org/2000/svg">
<path fill-rule="evenodd" clip-rule="evenodd" d="M0.199219 1.0002C0.199219 0.558368 0.557391 0.200195 0.999219 0.200195C2.18151 0.200195 2.89881 1.0106 3.27728 1.76765C3.50853 2.23022 3.65226 2.73824 3.72895 3.20046L18.0822 3.20022C19.1868 3.2002 20.0823 4.09563 20.0823 5.20022V6.34617C20.0823 6.51662 20.0604 6.68773 20.0165 6.85397C19.6691 8.16975 19.3085 9.33746 18.9513 10.2655C18.6091 11.1546 18.2275 11.9422 17.7949 12.3864C17.4398 12.7512 16.9806 12.8002 16.7159 12.8002H5.52098C5.61827 12.9737 5.74539 13.1416 5.89793 13.3035C6.27631 13.7049 6.75907 14.0097 7.12932 14.1843C7.14018 14.1895 7.17066 14.2002 7.23032 14.2002H16.4992C16.941 14.2002 17.2992 14.5584 17.2992 15.0002C17.2992 15.442 16.941 15.8002 16.4992 15.8002H7.23032C6.98464 15.8002 6.71214 15.7566 6.44684 15.6315C5.94275 15.3938 5.28109 14.9817 4.73362 14.4009C4.19937 13.8341 3.72502 13.0511 3.70024 12.08L2.21292 4.1479L2.19922 4.07482V4.00047C2.19922 3.60101 2.09342 2.97771 1.84616 2.48311C1.59963 1.98999 1.31693 1.8002 0.999219 1.8002C0.557391 1.8002 0.199219 1.44202 0.199219 1.0002ZM5.16316 11.2002H16.7097C16.8902 10.9739 17.1511 10.4884 17.4581 9.69074C17.7868 8.83673 18.1304 7.72974 18.4695 6.44552C18.4778 6.41401 18.4823 6.38024 18.4823 6.34617V5.20022C18.4823 4.9793 18.3032 4.80021 18.0823 4.80022L3.96316 4.80045L5.16316 11.2002ZM5.99922 18.8002C6.44105 18.8002 6.79922 18.442 6.79922 18.0002C6.79922 17.5584 6.44105 17.2002 5.99922 17.2002C5.55739 17.2002 5.19922 17.5584 5.19922 18.0002C5.19922 18.442 5.55739 18.8002 5.99922 18.8002ZM5.99922 20.0002C7.10379 20.0002 7.99922 19.1048 7.99922 18.0002C7.99922 16.8956 7.10379 16.0002 5.99922 16.0002C4.89465 16.0002 3.99922 16.8956 3.99922 18.0002C3.99922 19.1048 4.89465 20.0002 5.99922 20.0002ZM15.7992 18.0002C15.7992 18.442 15.441 18.8002 14.9992 18.8002C14.5574 18.8002 14.1992 18.442 14.1992 18.0002C14.1992 17.5584 14.5574 17.2002 14.9992 17.2002C15.441 17.2002 15.7992 17.5584 15.7992 18.0002ZM16.9992 18.0002C16.9992 19.1048 16.1038 20.0002 14.9992 20.0002C13.8946 20.0002 12.9992 19.1048 12.9992 18.0002C12.9992 16.8956 13.8946 16.0002 14.9992 16.0002C16.1038 16.0002 16.9992 16.8956 16.9992 18.0002Z" fill="#1B1C1D"/>
</svg>
