<svg width="20" height="20" viewBox="0 0 20 20" fill="none" xmlns="http://www.w3.org/2000/svg">
<path fill-rule="evenodd" clip-rule="evenodd" d="M9.99962 1.8002C5.46918 1.8002 1.79922 5.91304 1.79922 9.99987C1.79922 14.4753 5.86352 17.8209 10.0716 18.2035C11.6298 18.3451 13.1404 18.3079 15.0725 18.2603C15.836 18.2414 16.6654 18.221 17.5895 18.2093C17.9314 18.205 18.1999 17.9289 18.1999 17.6001L18.1992 10.5254C17.9536 6.65933 16.875 4.53924 15.4825 3.3609C14.0738 2.16887 12.1824 1.8002 9.99962 1.8002ZM0.199219 9.99987C0.199219 5.08671 4.52926 0.200195 9.99962 0.200195C12.3165 0.200195 14.6749 0.581524 16.516 2.13949C18.3704 3.70865 19.5403 6.33205 19.7977 10.4503C19.7987 10.4669 19.7992 10.4835 19.7992 10.5001L19.7999 17.6C19.8 18.8177 18.8141 19.794 17.6097 19.8092C16.7462 19.8201 15.9497 19.8398 15.2012 19.8582C13.225 19.907 11.5832 19.9475 9.92679 19.7969C5.13492 19.3613 0.199219 15.5239 0.199219 9.99987ZM5.69922 6.99987C5.69922 6.55804 6.05739 6.19987 6.49922 6.19987H9.99962C10.4415 6.19987 10.7996 6.55804 10.7996 6.99987C10.7996 7.4417 10.4415 7.79987 9.99962 7.79987H6.49922C6.05739 7.79987 5.69922 7.4417 5.69922 6.99987ZM5.69922 9.99984C5.69924 9.55801 6.05743 9.19985 6.49925 9.19987L13.9993 9.2002C14.4411 9.20021 14.7992 9.5584 14.7992 10.0002C14.7992 10.4421 14.441 10.8002 13.9992 10.8002L6.49918 10.7999C6.05736 10.7999 5.6992 10.4417 5.69922 9.99984ZM5.69922 13.4998C5.69924 13.058 6.05743 12.6999 6.49925 12.6999L13.9993 12.7002C14.4411 12.7002 14.7992 13.0584 14.7992 13.5002C14.7992 13.9421 14.441 14.3002 13.9992 14.3002L6.49918 14.2999C6.05736 14.2999 5.6992 13.9417 5.69922 13.4998Z" fill="#1B1C1D"/>
</svg>
