<svg width="16" height="16" viewBox="0 0 16 16" fill="none" xmlns="http://www.w3.org/2000/svg">
<path fill-rule="evenodd" clip-rule="evenodd" d="M7.99867 3.31468C5.40984 3.31468 3.31272 5.66487 3.31272 8.00021C3.31272 10.5576 5.63518 12.4694 8.03983 12.688C8.93023 12.7689 9.79341 12.7476 10.8974 12.7204C11.3337 12.7097 11.8077 12.698 12.3357 12.6913C12.5311 12.6889 12.6845 12.5311 12.6845 12.3432L12.6842 8.30053C12.5438 6.09132 11.9275 4.87984 11.1317 4.20651C10.3268 3.52535 9.24596 3.31468 7.99867 3.31468ZM2.39844 8.00021C2.39844 5.19268 4.87275 2.40039 7.99867 2.40039C9.32257 2.40039 10.6702 2.61829 11.7223 3.50856C12.782 4.40522 13.4505 5.90431 13.5975 8.25759C13.5981 8.26707 13.5984 8.27656 13.5984 8.28606L13.5988 12.3431C13.5989 13.039 13.0355 13.5968 12.3473 13.6055C11.8539 13.6118 11.3987 13.623 10.971 13.6335C9.84171 13.6614 8.90355 13.6846 7.95705 13.5985C5.21884 13.3496 2.39844 11.1568 2.39844 8.00021ZM5.54129 6.28592C5.54129 6.03345 5.74596 5.82878 5.99844 5.82878H7.99867C8.25114 5.82878 8.45581 6.03345 8.45581 6.28592C8.45581 6.53839 8.25114 6.74306 7.99867 6.74306H5.99844C5.74596 6.74306 5.54129 6.53839 5.54129 6.28592ZM5.54129 8.00019C5.54131 7.74771 5.74598 7.54305 5.99846 7.54306L10.2842 7.54325C10.5366 7.54326 10.7413 7.74794 10.7413 8.00041C10.7413 8.25288 10.5366 8.45754 10.2841 8.45753L5.99842 8.45735C5.74594 8.45734 5.54128 8.25266 5.54129 8.00019ZM5.54129 10.0002C5.54131 9.74771 5.74598 9.54305 5.99846 9.54306L10.2842 9.54325C10.5366 9.54326 10.7413 9.74794 10.7413 10.0004C10.7413 10.2529 10.5366 10.4575 10.2841 10.4575L5.99842 10.4573C5.74594 10.4573 5.54128 10.2527 5.54129 10.0002Z" fill="#0068E6"/>
</svg>
