<svg width="28" height="28" viewBox="0 0 32 32" fill="none" xmlns="http://www.w3.org/2000/svg">
<g id="icon/line/heart">
<path id="Vector 591 (Stroke)" fill-rule="evenodd" clip-rule="evenodd" d="M18.9988 7.43001C20.5645 6.8822 22.1423 7.08623 23.1146 7.37064C23.1523 7.38166 23.1892 7.39509 23.2251 7.41084C26.4712 8.83432 27.2008 12.0128 27.2008 14.4285C27.2008 16.9644 25.5669 19.7331 23.5819 21.984C21.574 24.2609 19.0168 26.2238 16.8448 27.095C16.2601 27.3295 15.6302 27.2723 15.1098 27.0151C11.7195 25.3395 9.1588 23.11 7.43857 20.8591C5.73532 18.6304 4.80078 16.3042 4.80078 14.4285C4.80078 12.7154 5.09278 11.2455 5.74197 10.0539C6.40122 8.84375 7.39694 7.98031 8.68472 7.44762C8.81737 7.39274 8.95442 7.35291 9.0891 7.32723C11.2781 6.90975 13.0768 7.3638 14.4173 8.30651C15.0582 8.75724 15.5809 9.31014 15.987 9.91098C16.7885 8.6048 17.8594 7.82867 18.9988 7.43001ZM15.0865 12.2609C14.835 11.3527 14.2572 10.4294 13.3653 9.80222C12.459 9.16479 11.1704 8.79182 9.43166 9.12343C9.41268 9.12705 9.39558 9.13241 9.38368 9.13733C8.45869 9.51995 7.79485 10.1079 7.34772 10.9287C6.89053 11.7679 6.62935 12.9084 6.62935 14.4285C6.62935 15.7602 7.3281 17.7031 8.89144 19.7488C10.4378 21.7722 12.777 23.8225 15.92 25.3758C16.0195 25.425 16.1069 25.4207 16.1641 25.3978C17.994 24.6639 20.3278 22.9095 22.2105 20.7746C24.1161 18.6136 25.3722 16.2759 25.3722 14.4285C25.3722 12.2902 24.7407 10.1033 22.5448 9.10956C21.8011 8.90224 20.6669 8.78363 19.6027 9.15598C18.5917 9.50974 17.5294 10.3437 16.9151 12.2805V14.4285C16.9151 14.9334 16.5057 15.3427 16.0008 15.3427C15.4958 15.3427 15.0865 14.9334 15.0865 14.4285V12.2609Z" fill="#FFFFFE"/>
</g>
</svg>
