<svg width="32" height="33" viewBox="0 0 32 33" fill="none" xmlns="http://www.w3.org/2000/svg">
<path fill-rule="evenodd" clip-rule="evenodd" d="M5.71719 16.3917C7.11869 13.4266 10.6243 9.03338 15.9366 9.41283C15.9624 9.41468 15.9884 9.41542 16.0143 9.41507C18.1125 9.38607 23.2206 10.7316 26.2904 16.5062C26.3749 16.6651 26.3699 16.8349 26.3009 16.9641C24.9222 19.545 21.4066 23.5866 16.0017 23.5866C15.979 23.5866 15.9563 23.5874 15.9337 23.5891C14.2805 23.7124 9.64915 22.6674 5.76874 16.8991C5.65604 16.7316 5.64717 16.5399 5.71719 16.3917ZM4.06399 15.6103C5.55355 12.4589 9.56195 7.14628 16.0287 7.58624C18.7327 7.56567 24.4874 9.21905 27.905 15.6478C28.2595 16.3147 28.2854 17.13 27.9138 17.8257C26.3931 20.6723 22.3972 25.3989 16.0346 25.4151C13.6285 25.5768 8.43007 24.1313 4.25152 17.9198C3.80058 17.2494 3.70249 16.3751 4.06399 15.6103ZM18.7446 16.5008C18.7446 18.0157 17.5165 19.2437 16.0017 19.2437C14.4869 19.2437 13.2588 18.0157 13.2588 16.5008C13.2588 14.986 14.4869 13.758 16.0017 13.758C17.5165 13.758 18.7446 14.986 18.7446 16.5008ZM20.5731 16.5008C20.5731 19.0256 18.5264 21.0723 16.0017 21.0723C13.477 21.0723 11.4303 19.0256 11.4303 16.5008C11.4303 13.9761 13.477 11.9294 16.0017 11.9294C18.5264 11.9294 20.5731 13.9761 20.5731 16.5008Z" fill="currentColor"/>
</svg>
