<svg width="28" height="28" viewBox="0 -1.5 28 28" fill="none" xmlns="http://www.w3.org/2000/svg">
<g id="icon/color/full heart">
<path id="Vector 591" d="M8.10215 7.19694C11.5389 6.54149 13.5049 8.64424 14 10.6247C15.2 6.62439 18.5 6.77815 20 7.21692C22.4 8.26937 23 10.6247 23 12.6247C23 16.4602 17.9424 21.5609 14.4407 22.9654C14.1599 23.078 13.8461 23.0549 13.5748 22.9208C7.85825 20.0955 5 15.4313 5 12.6247C5 9.79564 5.96807 8.0566 7.90424 7.25569C7.96748 7.22953 8.03492 7.20976 8.10215 7.19694Z" fill="#FF5E5E"/>
<path id="Vector 591 (Stroke)" fill-rule="evenodd" clip-rule="evenodd" d="M16.6225 6.50126C17.9925 6.02192 19.373 6.20045 20.2238 6.44931C20.2568 6.45895 20.2891 6.4707 20.3205 6.48449C23.1608 7.73003 23.7992 10.5112 23.7992 12.6249C23.7992 14.8439 22.3696 17.2665 20.6327 19.236C18.8758 21.2283 16.6382 22.9458 14.7377 23.7081C14.2261 23.9133 13.675 23.8633 13.2196 23.6382C10.2531 22.1721 8.01249 20.2213 6.50728 18.2517C5.01694 16.3016 4.19922 14.2662 4.19922 12.6249C4.19922 11.126 4.45472 9.83983 5.02276 8.79714C5.5996 7.73829 6.47086 6.98277 7.59767 6.51666L7.90346 7.25591L7.59767 6.51666C7.71374 6.46865 7.83366 6.4338 7.95149 6.41133L8.10137 7.19716L7.9515 6.41133C9.86687 6.04603 11.4408 6.44333 12.6136 7.26819C13.1744 7.66259 13.6318 8.14637 13.9871 8.6721C14.6885 7.5292 15.6256 6.85009 16.6225 6.50126ZM13.1992 10.7283C12.9792 9.93365 12.4736 9.12575 11.6932 8.57695C10.9001 8.01919 9.77264 7.69284 8.25124 7.983C8.23463 7.98617 8.21967 7.99086 8.20925 7.99516C7.39989 8.32996 6.81903 8.84442 6.42779 9.56257C6.02775 10.2969 5.79922 11.2948 5.79922 12.6249C5.79922 13.7902 6.41062 15.4902 7.77855 17.2802C9.13161 19.0507 11.1784 20.8447 13.9285 22.2038C14.0156 22.2469 14.0921 22.2432 14.1421 22.2231C15.7433 21.5809 17.7854 20.0458 19.4327 18.1777C21.1001 16.2869 22.1992 14.2414 22.1992 12.6249C22.1992 10.7539 21.6467 8.84038 19.7252 7.97086C19.0745 7.78946 18.0821 7.68568 17.1509 8.01149C16.2662 8.32103 15.3368 9.05075 14.7992 10.7454V12.6249C14.7992 13.0667 14.441 13.4249 13.9992 13.4249C13.5574 13.4249 13.1992 13.0667 13.1992 12.6249V10.7283Z" fill="#FF5E5E"/>
</g>
</svg>
