<svg width="20" height="20" viewBox="0 0 20 20" fill="none" xmlns="http://www.w3.org/2000/svg">
<path fill-rule="evenodd" clip-rule="evenodd" d="M10.3857 2.37094C10.1624 2.18287 9.83607 2.18287 9.61274 2.37094L2.01274 8.77094C1.87736 8.88494 1.79922 9.0529 1.79922 9.22988V17.5996C1.79922 17.931 2.06785 18.1996 2.39922 18.1996H6.19922V14.5019C6.19922 14.2634 6.23599 13.9937 6.34967 13.7265C7.00517 12.1861 8.49029 11.0943 9.99922 11.0943C10.6917 11.0943 11.5931 11.3993 12.3164 11.8789C13.0298 12.3521 13.7992 13.1548 13.7992 14.2628V18.1996H17.5992C17.9306 18.1996 18.1992 17.931 18.1992 17.5996V9.22988C18.1992 9.0529 18.1211 8.88494 17.9857 8.77094L10.3857 2.37094ZM12.1992 18.1996V14.2628C12.1992 13.9497 11.9686 13.5682 11.4321 13.2124C10.9054 12.8631 10.3067 12.6943 9.99922 12.6943C9.23598 12.6943 8.26968 13.3008 7.82191 14.353C7.81165 14.3771 7.79922 14.4238 7.79922 14.5019V18.1996H12.1992ZM8.58212 1.14708C9.40101 0.457485 10.5974 0.457484 11.4163 1.14708L19.0163 7.54708C19.5127 7.96509 19.7992 8.58093 19.7992 9.22988V17.5996C19.7992 18.8146 18.8142 19.7996 17.5992 19.7996H2.39922C1.18419 19.7996 0.199219 18.8146 0.199219 17.5996V9.22988C0.199219 8.58093 0.48573 7.96509 0.982119 7.54708L8.58212 1.14708Z" fill="#1B1C1D"/>
</svg>
