<svg width="16" height="16" viewBox="0 0 16 16" fill="none" xmlns="http://www.w3.org/2000/svg">
<g id="icon/line/influencer">
<path id="Vector" fill-rule="evenodd" clip-rule="evenodd" d="M7.99849 7.08613C9.0715 7.08613 9.94134 6.21629 9.94134 5.14328C9.94134 4.07027 9.0715 3.20042 7.99849 3.20042C6.92548 3.20042 6.05563 4.07027 6.05563 5.14328C6.05563 6.21629 6.92548 7.08613 7.99849 7.08613ZM7.99849 8.00042C9.57644 8.00042 10.8556 6.72123 10.8556 5.14328C10.8556 3.56532 9.57644 2.28613 7.99849 2.28613C6.42053 2.28613 5.14134 3.56532 5.14134 5.14328C5.14134 6.72123 6.42053 8.00042 7.99849 8.00042ZM12.1069 9.96471L12.4966 10.8041C12.5153 10.8445 12.5558 10.8703 12.6003 10.8703L13.4159 10.8703C13.4253 10.8703 13.4349 10.8715 13.4439 10.874C13.7808 10.9669 13.7327 11.2714 13.6613 11.4247C13.6577 11.4325 13.653 11.4396 13.6475 11.4463L13.2106 11.9786C13.0346 12.1552 12.9515 12.4178 12.9823 12.5357C12.9838 12.5417 12.9854 12.5476 12.9864 12.5537L13.0977 13.2474C13.2072 13.6866 12.9273 13.713 12.7731 13.6798C12.7639 13.6778 12.755 13.6742 12.7467 13.6697L11.9781 13.2554C11.9682 13.2501 11.9592 13.2432 11.951 13.2356C11.7802 13.0768 11.5986 13.1668 11.52 13.2396C11.5145 13.2447 11.5088 13.2495 11.5025 13.2537L10.8538 13.6876C10.8413 13.6959 10.827 13.7018 10.8123 13.7044C10.3823 13.7787 10.3466 13.4328 10.3836 13.2474L10.495 12.577C10.4959 12.5712 10.4974 12.5653 10.4992 12.5596C10.584 12.292 10.458 12.0769 10.3836 12.0023L9.83069 11.5586C9.82318 11.5525 9.81625 11.5454 9.81063 11.5375C9.56445 11.1946 9.83814 10.962 10.0248 10.8789C10.0381 10.873 10.0525 10.8703 10.0671 10.8703L10.9812 10.8703C11.0289 10.8703 11.0716 10.8407 11.0883 10.796L11.3954 9.97444C11.3978 9.96796 11.4009 9.96147 11.4045 9.95558C11.6742 9.51551 11.9949 9.77733 12.1069 9.96471ZM8.0231 9.60625C8.56651 9.57695 9.35141 9.65317 10.124 9.94231C10.3604 10.0308 10.6238 9.91087 10.7123 9.67441C10.8008 9.43796 10.6809 9.17453 10.4444 9.08603C9.54791 8.75049 8.64157 8.65906 7.98631 8.69264C6.01964 8.69557 4.66095 9.40894 3.77354 10.3302C2.89693 11.2402 2.49911 12.3326 2.40223 13.0849C2.36998 13.3353 2.54684 13.5644 2.79724 13.5967C3.04765 13.6289 3.27678 13.4521 3.30903 13.2017C3.38358 12.6228 3.70576 11.7184 4.43201 10.9645C5.14562 10.2237 6.26887 9.60692 7.99849 9.60692H8.0108L8.0231 9.60625Z" fill="url(#paint0_linear_1109_14816)"/>
</g>
<defs>
<linearGradient id="paint0_linear_1109_14816" x1="2.39844" y1="2.74328" x2="13.2562" y2="13.6056" gradientUnits="userSpaceOnUse">
<stop stop-color="#0068E5"/>
<stop offset="1" stop-color="#9AEC5B"/>
</linearGradient>
</defs>
</svg>
