<svg width="14" height="14" viewBox="0 -2 10 14" fill="none" xmlns="http://www.w3.org/2000/svg">
<path fill-rule="evenodd" clip-rule="evenodd" d="M5.99849 5.08613C7.0715 5.08613 7.94134 4.21629 7.94134 3.14328C7.94134 2.07027 7.0715 1.20042 5.99849 1.20042C4.92548 1.20042 4.05563 2.07027 4.05563 3.14328C4.05563 4.21629 4.92548 5.08613 5.99849 5.08613ZM5.99849 6.00042C7.57644 6.00042 8.85563 4.72123 8.85563 3.14328C8.85563 1.56532 7.57644 0.286133 5.99849 0.286133C4.42053 0.286133 3.14134 1.56532 3.14134 3.14328C3.14134 4.72123 4.42053 6.00042 5.99849 6.00042ZM10.1069 7.96471L10.4966 8.80411C10.5153 8.84445 10.5558 8.87027 10.6003 8.87027L11.4159 8.87031C11.4253 8.87031 11.4349 8.87147 11.4439 8.87396C11.7808 8.96688 11.7327 9.27144 11.6613 9.42471C11.6577 9.43249 11.653 9.43963 11.6475 9.44626L11.2106 9.9786C11.0346 10.1552 10.9515 10.4178 10.9823 10.5357C10.9838 10.5417 10.9854 10.5476 10.9864 10.5537L11.0977 11.2474C11.2072 11.6866 10.9273 11.713 10.7731 11.6798C10.7639 11.6778 10.755 11.6742 10.7467 11.6697L9.97806 11.2554C9.96823 11.2501 9.95922 11.2432 9.95105 11.2356C9.78018 11.0768 9.59862 11.1668 9.52005 11.2396C9.51452 11.2447 9.50876 11.2495 9.5025 11.2537L8.85375 11.6876C8.84132 11.6959 8.82704 11.7018 8.8123 11.7044C8.38234 11.7787 8.34662 11.4328 8.38359 11.2474L8.49496 10.577C8.49593 10.5712 8.49741 10.5653 8.49921 10.5596C8.584 10.292 8.45802 10.0769 8.38359 10.0023L7.83069 9.55855C7.82318 9.55252 7.81625 9.54536 7.81063 9.53754C7.56445 9.19461 7.83814 8.96196 8.02476 8.87889C8.03808 8.87296 8.05253 8.87031 8.06711 8.87031L8.98124 8.87027C9.02892 8.87027 9.07159 8.84066 9.08828 8.796L9.39538 7.97444C9.3978 7.96796 9.40093 7.96147 9.40454 7.95558C9.67421 7.51551 9.99485 7.77733 10.1069 7.96471ZM6.0231 7.60625C6.56651 7.57695 7.35141 7.65317 8.12396 7.94231C8.36042 8.03081 8.62384 7.91087 8.71234 7.67441C8.80084 7.43796 8.68089 7.17453 8.44444 7.08603C7.54791 6.75049 6.64157 6.65906 5.98631 6.69264C4.01964 6.69557 2.66095 7.40894 1.77354 8.33019C0.896934 9.24021 0.499113 10.3326 0.402232 11.0849C0.369985 11.3353 0.546837 11.5644 0.797242 11.5967C1.04765 11.6289 1.27678 11.4521 1.30903 11.2017C1.38358 10.6228 1.70576 9.71842 2.43201 8.96449C3.14562 8.22367 4.26887 7.60692 5.99849 7.60692H6.0108L6.0231 7.60625Z" fill="url(#paint0_linear_1822_6987)"/>
<defs>
<linearGradient id="paint0_linear_1822_6987" x1="0.398437" y1="0.743276" x2="11.2562" y2="11.6056" gradientUnits="userSpaceOnUse">
<stop stop-color="#0068E5"/>
<stop offset="1" stop-color="#9AEC5B"/>
</linearGradient>
</defs>
</svg>
