<svg width="28" height="28" viewBox="0 0 28 28" fill="none" xmlns="http://www.w3.org/2000/svg">
<path fill-rule="evenodd" clip-rule="evenodd" d="M17.3993 9C17.3993 10.8778 15.8771 12.4 13.9993 12.4C12.1215 12.4 10.5993 10.8778 10.5993 9C10.5993 7.12223 12.1215 5.6 13.9993 5.6C15.8771 5.6 17.3993 7.12223 17.3993 9ZM18.9993 9C18.9993 11.7614 16.7607 14 13.9993 14C11.2379 14 8.99931 11.7614 8.99931 9C8.99931 6.23858 11.2379 4 13.9993 4C16.7607 4 18.9993 6.23858 18.9993 9ZM14.0424 16.8102C15.2756 16.7437 17.1875 16.9879 18.8503 17.9211C20.4763 18.8337 21.8792 20.4074 22.2051 23.0963C22.2583 23.5349 22.6569 23.8474 23.0956 23.7942C23.5342 23.741 23.8467 23.3424 23.7935 22.9037C23.3994 19.6522 21.6523 17.6589 19.6333 16.5258C17.6609 15.4188 15.445 15.1362 13.978 15.2114C10.5363 15.2165 8.15862 16.4649 6.60564 18.0771C5.07159 19.6696 4.3754 21.5813 4.20586 22.8978C4.14943 23.336 4.45892 23.737 4.89713 23.7934C5.33534 23.8499 5.73632 23.5404 5.79275 23.1022C5.92321 22.0891 6.48703 20.5065 7.75797 19.1871C9.00679 17.8907 10.9725 16.8114 13.9993 16.8114H14.0209L14.0424 16.8102Z" fill="#1B1C1D"/>
</svg>
