<svg width="40" height="40" viewBox="0 0 40 40" fill="none" xmlns="http://www.w3.org/2000/svg">
<path fill-rule="evenodd" clip-rule="evenodd" d="M8.25808 19C8.25808 18.4319 8.71859 17.9714 9.28665 17.9714L17.9724 17.9714L17.9724 9.28572C17.9724 8.71765 18.4329 8.25714 19.0009 8.25714C19.569 8.25714 20.0295 8.71765 20.0295 9.28572L20.0295 17.9714L28.7152 17.9714C29.2833 17.9714 29.7438 18.4319 29.7438 19C29.7438 19.5681 29.2833 20.0286 28.7152 20.0286L20.0295 20.0286L20.0295 28.7143C20.0295 29.2823 19.569 29.7429 19.0009 29.7429C18.4329 29.7429 17.9724 29.2823 17.9724 28.7143L17.9724 20.0286L9.28665 20.0286C8.71859 20.0286 8.25808 19.5681 8.25808 19Z" fill="#1B1C1D"/>
</svg>
