<svg width="38" height="38" viewBox="-5 -5 38 38" fill="none" xmlns="http://www.w3.org/2000/svg">
<path fill-rule="evenodd" clip-rule="evenodd" d="M19.4 12.5C19.4 16.3108 16.3108 19.4 12.5 19.4C8.68924 19.4 5.6 16.3108 5.6 12.5C5.6 8.68924 8.68924 5.6 12.5 5.6C16.3108 5.6 19.4 8.68924 19.4 12.5ZM17.9182 19.0496C16.4473 20.2678 14.5591 21 12.5 21C7.80558 21 4 17.1944 4 12.5C4 7.80558 7.80558 4 12.5 4C17.1944 4 21 7.80558 21 12.5C21 14.5591 20.2678 16.4473 19.0496 17.9182L24.0657 22.9343C24.3781 23.2467 24.3781 23.7533 24.0657 24.0657C23.7533 24.3781 23.2467 24.3781 22.9343 24.0657L17.9182 19.0496Z" fill="#1B1C1D"/>
</svg>
