<svg width="21" height="21" viewBox="0 0 21 21" fill="none" xmlns="http://www.w3.org/2000/svg">
<path fill-rule="evenodd" clip-rule="evenodd" d="M15.4 8.5C15.4 12.3108 12.3108 15.4 8.5 15.4C4.68924 15.4 1.6 12.3108 1.6 8.5C1.6 4.68924 4.68924 1.6 8.5 1.6C12.3108 1.6 15.4 4.68924 15.4 8.5ZM13.9182 15.0496C12.4473 16.2678 10.5591 17 8.5 17C3.80558 17 0 13.1944 0 8.5C0 3.80558 3.80558 0 8.5 0C13.1944 0 17 3.80558 17 8.5C17 10.5591 16.2678 12.4473 15.0496 13.9182L20.0657 18.9343C20.3781 19.2467 20.3781 19.7533 20.0657 20.0657C19.7533 20.3781 19.2467 20.3781 18.9343 20.0657L13.9182 15.0496Z" fill="#1B1C1D"/>
</svg>
