<svg width="40" height="40" viewBox="0 0 40 40" fill="none" xmlns="http://www.w3.org/2000/svg">
<path fill-rule="evenodd" clip-rule="evenodd" d="M29.8081 7.9636C30.0826 8.15383 30.2315 8.47863 30.1966 8.81078L28.1483 28.2694C27.9684 29.9786 26.0373 30.8853 24.6072 29.932L21.9752 28.1773L20.6652 29.4873C19.0813 31.0713 16.373 29.9495 16.373 27.7095V24.6926C16.373 24.1335 16.5594 23.5903 16.9026 23.149L26.091 11.3354L10.3359 19.213C9.94942 19.4062 10.0221 19.9783 10.4446 20.0688L14.6217 20.9639C15.1155 21.0697 15.4299 21.5558 15.3241 22.0495C15.2183 22.5432 14.7323 22.8577 14.2386 22.7519L10.0614 21.8568C7.94876 21.4041 7.58564 18.5437 9.51817 17.5774L28.8784 7.89731C29.1771 7.74794 29.5336 7.77336 29.8081 7.9636ZM28.0428 11.8044L18.3737 24.2361L22.2676 26.183C22.3015 26.2 22.3343 26.219 22.3659 26.2401L25.6215 28.4105C25.9076 28.6012 26.2938 28.4198 26.3298 28.078L28.0428 11.8044ZM18.2016 26.1944V27.7095C18.2016 28.3204 18.9402 28.6263 19.3722 28.1943L20.3153 27.2513L18.2016 26.1944Z" fill="#4C4F52"/>
</svg>
