<svg width="28" height="28" viewBox="0 0 28 28" fill="none" xmlns="http://www.w3.org/2000/svg">
<path fill-rule="evenodd" clip-rule="evenodd" d="M13.2948 4.35645C12.1918 4.35645 11.1915 5.004 10.74 6.01038L10.3865 6.79845C10.1675 7.28668 9.65167 7.5709 9.12193 7.49522L8.54008 7.4121C7.34698 7.24166 6.17868 7.85379 5.6397 8.93176L5.30342 9.60431C4.85406 10.503 4.92072 11.5736 5.47808 12.4097L6.09467 13.3346C6.36339 13.7376 6.36339 14.2628 6.09467 14.6658L5.47808 15.5907C4.92072 16.4268 4.85406 17.4974 5.30342 18.3961L5.65155 19.0923C6.18246 20.1541 7.32525 20.7658 8.50324 20.6185L9.45964 20.499C10.0306 20.4276 10.5719 20.7716 10.7497 21.3188L10.79 21.4428C11.1649 22.5964 12.24 23.3774 13.4529 23.3774H14.5469C15.7599 23.3774 16.835 22.5964 17.2098 21.4428L17.3117 21.1293C17.4723 20.6349 17.9331 20.3002 18.4529 20.3002H19.3676C20.3511 20.3002 21.2625 19.7842 21.7685 18.9408L22.1211 18.3532C22.6136 17.5323 22.6526 16.5167 22.2245 15.6604L21.7345 14.6805C21.542 14.2954 21.5705 13.8365 21.8094 13.4782L22.426 12.5533C23.053 11.6128 23.053 10.3876 22.426 9.44705L21.8829 8.63244C21.2717 7.71565 20.1797 7.24254 19.0928 7.42368L18.3836 7.54188C18.0089 7.60432 17.7932 7.45811 17.7073 7.27484C17.5558 6.95191 17.3944 6.56936 17.2414 6.18596C16.8124 5.1109 15.7777 4.35645 14.5832 4.35645H13.2948ZM12.1999 6.66527C12.3934 6.23397 12.822 5.95645 13.2948 5.95645H14.5832C15.0863 5.95645 15.5551 6.27726 15.7553 6.77894C15.9146 7.17823 16.0889 7.59233 16.2587 7.95421C16.7212 8.94051 17.7471 9.27003 18.6467 9.12011L19.3559 9.00191C19.8217 8.92428 20.2897 9.12704 20.5516 9.51995L21.0947 10.3346C21.3634 10.7376 21.3634 11.2628 21.0947 11.6658L20.4781 12.5907C19.9207 13.4268 19.8541 14.4974 20.3035 15.3961L20.7934 16.376C20.9769 16.7429 20.9602 17.1782 20.7491 17.53L20.3966 18.1176C20.1797 18.479 19.7891 18.7002 19.3676 18.7002H18.4529C17.2399 18.7002 16.1649 19.4812 15.79 20.6349L15.6882 20.9483C15.5275 21.4427 15.0668 21.7774 14.5469 21.7774H13.4529C12.9331 21.7774 12.4724 21.4427 12.3117 20.9483L12.2714 20.8243C11.8564 19.5474 10.5935 18.7448 9.26119 18.9113L8.30478 19.0309C7.79993 19.094 7.31016 18.8318 7.08263 18.3768L6.73451 17.6805C6.54192 17.2954 6.57049 16.8365 6.80936 16.4782L7.42595 15.5534C8.05296 14.6128 8.05296 13.3876 7.42595 12.447L6.80936 11.5222C6.57049 11.1638 6.54192 10.705 6.73451 10.3199L7.07078 9.6473C7.30178 9.18531 7.80248 8.92297 8.3138 8.99602L8.89566 9.07914C10.1317 9.25572 11.3353 8.59255 11.8463 7.45335L12.1999 6.66527ZM15.3999 14.0002C15.3999 14.7734 14.7731 15.4002 13.9999 15.4002C13.2267 15.4002 12.5999 14.7734 12.5999 14.0002C12.5999 13.227 13.2267 12.6002 13.9999 12.6002C14.7731 12.6002 15.3999 13.227 15.3999 14.0002ZM16.9999 14.0002C16.9999 15.657 15.6568 17.0002 13.9999 17.0002C12.3431 17.0002 10.9999 15.657 10.9999 14.0002C10.9999 12.3433 12.3431 11.0002 13.9999 11.0002C15.6568 11.0002 16.9999 12.3433 16.9999 14.0002Z" fill="#1B1C1D"/>
</svg>
