<svg width="38" height="38" viewBox="0 0 38 38" fill="none" xmlns="http://www.w3.org/2000/svg">
<path fill-rule="evenodd" clip-rule="evenodd" d="M16.4133 11.645C16.2301 11.817 16.0825 12.0059 15.9646 12.1992L22.138 12.1989C21.8359 11.6924 21.4131 11.3807 20.9672 11.1767C20.2501 10.8485 19.4607 10.7995 18.9992 10.7992M13.7992 13.7993V26.7229C13.7992 27.0543 14.0678 27.3229 14.3992 27.3229H23.5992C23.9306 27.3229 24.1992 27.0543 24.1992 26.7229V13.799L13.7992 13.7993ZM25.7992 13.7993V26.7229C25.7992 27.9379 24.8142 28.9229 23.5992 28.9229H14.3992C13.1842 28.9229 12.1992 27.9379 12.1992 26.7229V13.7993H11.1672C10.7254 13.7993 10.3672 13.4411 10.3672 12.9993C10.3672 12.5574 10.7254 12.1993 11.1672 12.1993H14.2028C14.4042 11.6325 14.7499 11.012 15.3182 10.4785C16.1292 9.71713 17.3236 9.19922 18.9992 9.19922C19.5378 9.1995 20.6026 9.2503 21.6329 9.72174C22.5593 10.1456 23.4457 10.9075 23.8913 12.199L26.9992 12.1993C27.441 12.1993 27.7992 12.5574 27.7992 12.9993C27.7992 13.4411 27.441 13.7993 26.9992 13.7993H25.7992ZM16.4133 11.645C16.8894 11.198 17.6751 10.7993 18.9992 10.7992L16.4133 11.645ZM17.4992 17.1992C17.941 17.1992 18.2992 17.5574 18.2992 17.9992V23.4992C18.2992 23.941 17.941 24.2992 17.4992 24.2992C17.0574 24.2992 16.6992 23.941 16.6992 23.4992V17.9992C16.6992 17.5574 17.0574 17.1992 17.4992 17.1992ZM20.4992 17.1992C20.941 17.1992 21.2992 17.5574 21.2992 17.9992V23.4992C21.2992 23.941 20.941 24.2992 20.4992 24.2992C20.0574 24.2992 19.6992 23.941 19.6992 23.4992V17.9992C19.6992 17.5574 20.0574 17.1992 20.4992 17.1992Z" fill="#1B1C1D"/>
</svg>
