<svg width="32" height="32" viewBox="0 0 32 32" fill="none" xmlns="http://www.w3.org/2000/svg">
<path fill-rule="evenodd" clip-rule="evenodd" d="M4.80078 5.71409C4.80078 5.20914 5.21012 4.7998 5.71507 4.7998C7.06626 4.7998 7.88603 5.72599 8.31857 6.59118C8.58286 7.11983 8.74711 7.70042 8.83476 8.22867L25.2385 8.2284C26.5009 8.22838 27.5243 9.25173 27.5243 10.5141V11.8238C27.5243 12.0186 27.4993 12.2141 27.4491 12.4041C27.0521 13.9079 26.6399 15.2424 26.2317 16.303C25.8406 17.3191 25.4045 18.2192 24.9101 18.7269C24.5043 19.1438 23.9795 19.1998 23.677 19.1998H10.8828C10.994 19.3981 11.1393 19.59 11.3136 19.775C11.746 20.2338 12.2978 20.5821 12.7209 20.7817C12.7333 20.7875 12.7681 20.7998 12.8363 20.7998H23.4294C23.9343 20.7998 24.3436 21.2091 24.3436 21.7141C24.3436 22.219 23.9343 22.6284 23.4294 22.6284H12.8363C12.5556 22.6284 12.2441 22.5785 11.9409 22.4356C11.3648 22.1639 10.6086 21.693 9.98295 21.0292C9.37239 20.3814 8.83026 19.4866 8.80194 18.3767L7.10216 9.31147L7.0865 9.22795V9.14297C7.0865 8.68646 6.96559 7.9741 6.683 7.40885C6.40125 6.84528 6.07816 6.62838 5.71507 6.62838C5.21012 6.62838 4.80078 6.21904 4.80078 5.71409ZM10.4739 17.3712H23.6699C23.8762 17.1126 24.1743 16.5577 24.5252 15.6461C24.9008 14.6701 25.2936 13.405 25.6811 11.9373C25.6906 11.9013 25.6957 11.8627 25.6957 11.8238V10.5141C25.6957 10.2616 25.491 10.057 25.2385 10.057L9.10243 10.0572L10.4739 17.3712ZM11.4294 26.0569C11.9343 26.0569 12.3436 25.6476 12.3436 25.1427C12.3436 24.6377 11.9343 24.2284 11.4294 24.2284C10.9244 24.2284 10.5151 24.6377 10.5151 25.1427C10.5151 25.6476 10.9244 26.0569 11.4294 26.0569ZM11.4294 27.4284C12.6917 27.4284 13.7151 26.405 13.7151 25.1427C13.7151 23.8803 12.6917 22.8569 11.4294 22.8569C10.167 22.8569 9.14364 23.8803 9.14364 25.1427C9.14364 26.405 10.167 27.4284 11.4294 27.4284ZM22.6294 25.1427C22.6294 25.6476 22.22 26.0569 21.7151 26.0569C21.2101 26.0569 20.8008 25.6476 20.8008 25.1427C20.8008 24.6377 21.2101 24.2284 21.7151 24.2284C22.22 24.2284 22.6294 24.6377 22.6294 25.1427ZM24.0008 25.1427C24.0008 26.405 22.9774 27.4284 21.7151 27.4284C20.4527 27.4284 19.4294 26.405 19.4294 25.1427C19.4294 23.8803 20.4527 22.8569 21.7151 22.8569C22.9774 22.8569 24.0008 23.8803 24.0008 25.1427Z" fill="#1B1C1D"/>
</svg>
