<svg width="32" height="32" viewBox="0 0 32 32" fill="none" xmlns="http://www.w3.org/2000/svg">
<path fill-rule="evenodd" clip-rule="evenodd" d="M22.1703 14.2856C22.1703 18.6407 18.6398 22.1713 14.2846 22.1713C9.92944 22.1713 6.39888 18.6407 6.39888 14.2856C6.39888 9.93041 9.92944 6.39986 14.2846 6.39986C18.6398 6.39986 22.1703 9.93041 22.1703 14.2856ZM20.4768 21.7708C18.7957 23.1631 16.6379 23.9999 14.2846 23.9999C8.91955 23.9999 4.57031 19.6506 4.57031 14.2856C4.57031 8.92052 8.91955 4.57129 14.2846 4.57129C19.6496 4.57129 23.9989 8.92052 23.9989 14.2856C23.9989 16.6389 23.1621 18.7967 21.7698 20.4778L27.5025 26.2105C27.8596 26.5676 27.8596 27.1464 27.5025 27.5035C27.1455 27.8605 26.5666 27.8605 26.2095 27.5035L20.4768 21.7708Z" fill="#1B1C1D"/>
</svg>
