<svg width="38" height="38" viewBox="0 0 38 38" fill="none" xmlns="http://www.w3.org/2000/svg">
<path fill-rule="evenodd" clip-rule="evenodd" d="M22.8698 9.99988C23.4946 9.37504 24.5077 9.37504 25.1325 9.99988L28.0012 12.8685C28.626 13.4933 28.626 14.5064 28.0012 15.1312L26.6325 16.4999C26.0077 17.1247 24.9946 17.1247 24.3698 16.4999L21.5012 13.6312C20.8763 13.0064 20.8763 11.9933 21.5012 11.3685L22.8698 9.99988ZM24.0012 11.1313L22.6325 12.4999L25.5012 15.3685L26.8698 13.9999L24.0012 11.1313ZM20.2614 15.3915C20.1082 15.2382 19.8608 15.2349 19.7035 15.3839L11.5919 23.0686C11.3827 23.2668 11.2518 23.5336 11.2231 23.8203L10.9161 26.8902L14.3173 25.8698C14.4964 25.8161 14.6605 25.7212 14.7965 25.5928L22.5542 18.2661C22.718 18.1113 22.7217 17.8518 22.5624 17.6924L20.2614 15.3915ZM15.2734 27.1999H28.0012C28.443 27.1999 28.8012 27.5581 28.8012 27.9999C28.8012 28.4417 28.443 28.7999 28.0012 28.7999H9.11719L9.63106 23.6611C9.69797 22.9921 10.0034 22.3695 10.4915 21.9071L18.6031 14.2224C19.3897 13.4772 20.6266 13.4939 21.3928 14.2601L23.6937 16.5611C24.4906 17.3579 24.4721 18.6555 23.6528 19.4293L15.8951 26.7561C15.7085 26.9323 15.4992 27.0814 15.2734 27.1999Z" fill="#989C9F"/>
</svg>
