<svg width="18" height="20" viewBox="0 0 18 20" fill="none" xmlns="http://www.w3.org/2000/svg">
<path fill-rule="evenodd" clip-rule="evenodd" d="M0.906114 0.824766C1.27883 0.495903 1.84756 0.531449 2.17643 0.904161L9.00157 8.63933L15.8267 0.904161C16.1556 0.531449 16.7243 0.495903 17.097 0.824766C17.4697 1.15363 17.5053 1.72237 17.1764 2.09508L10.2018 9.99962L17.1764 17.9042C17.5053 18.2769 17.4697 18.8456 17.097 19.1745C16.7243 19.5033 16.1556 19.4678 15.8267 19.0951L9.00157 11.3599L2.17643 19.0951C1.84756 19.4678 1.27883 19.5033 0.906114 19.1745C0.533402 18.8456 0.497856 18.2769 0.826719 17.9042L7.80131 9.99962L0.826719 2.09508C0.497856 1.72237 0.533402 1.15363 0.906114 0.824766Z" fill="#1B1C1D"/>
</svg>
