<svg width="40" height="40" viewBox="0 0 40 40" fill="none" xmlns="http://www.w3.org/2000/svg">
<path fill-rule="evenodd" clip-rule="evenodd" d="M9.7465 8.51513C10.1725 8.13929 10.8224 8.17992 11.1983 8.60587L18.9985 17.4461L26.7986 8.60587C27.1745 8.17992 27.8244 8.13929 28.2504 8.51513C28.6764 8.89098 28.717 9.54097 28.3411 9.96692L20.3702 19.0007L28.3411 28.0344C28.717 28.4604 28.6764 29.1104 28.2504 29.4862C27.8244 29.8621 27.1745 29.8214 26.7986 29.3955L18.9985 20.5553L11.1983 29.3955C10.8224 29.8214 10.1725 29.8621 9.7465 29.4862C9.32054 29.1104 9.27992 28.4604 9.65576 28.0344L17.6267 19.0007L9.65576 9.96692C9.27992 9.54097 9.32054 8.89098 9.7465 8.51513Z" fill="#1B1C1D"/>
</svg>
